<?xml version="1.0" encoding="UTF-8"?>
<svg id="Livello_1" data-name="Livello 1" xmlns="http://www.w3.org/2000/svg" xmlns:xlink="http://www.w3.org/1999/xlink" viewBox="0 0 216 384">
  <defs>
    <style>
      .cls-1 {
        fill: none;
      }

      .cls-2 {
        clip-path: url(#clippath);
      }

      .cls-3 {
        fill: #efafed;
      }

      .cls-4 {
        fill: #e89ce8;
      }

      .cls-5 {
        fill: #fff;
      }

      .cls-6 {
        fill: #fff6e8;
      }

      .cls-7 {
        fill: #fff4d6;
      }

      .cls-8 {
        fill: #ffeac6;
      }

      .cls-9 {
        fill: #fc8832;
      }

      .cls-10 {
        fill: #dd2be2;
      }
    </style>
    <clipPath id="clippath">
      <rect class="cls-1" y="0" width="216" height="384"/>
    </clipPath>
  </defs>
  <path class="cls-9" d="m144.07,53.72l-18.04,24.05L108,5.63s-50.98,50.98-53.97,108.95c-1.51,29.34,20.4,56.97,49.68,59.22,31.82,2.45,58.4-22.65,58.4-53.94,0-24.05-18.03-66.13-18.03-66.13h0Zm0,0"/>
  <path class="cls-7" d="m105.09,155.82c10.16.8,19.95-2.57,27.4-9.48,7.46-6.91,11.57-16.32,11.57-26.48,0-5.09-1.25-12.53-3.62-21.52-.51-1.95-2.11-2.46-2.78-2.59-.67-.12-2.37-.27-3.6,1.37l-.54.72c-2.94,3.91-7.73,5.75-12.52,4.77-4.78-.96-8.5-4.51-9.67-9.25l-10.05-40.15c-.52-2.11-2.26-2.6-2.99-2.71-.15-.02-.36-.05-.6-.05-.84,0-2.07.27-2.92,1.63-13.89,22.2-21.76,44.13-22.75,63.44-1.07,20.73,13.76,38.82,33.05,40.3h0Zm0,0"/>
  <path class="cls-6" d="m192.17,378.38H23.83c-9.96,0-18.04-8.07-18.04-18.04v-216.44c0-6.64,5.39-12.02,12.03-12.02h180.36c6.64,0,12.03,5.38,12.03,12.02v216.44c0,9.96-8.08,18.04-18.04,18.04h0Zm0,0"/>
  <path class="cls-10" d="m192.17,378.38H23.83c-9.96,0-18.04-8.07-18.04-18.04v-162.33h204.41v162.33c0,9.96-8.08,18.04-18.04,18.04h0Zm0,0"/>
  <path class="cls-5" d="m133.51,246.36c-10.62-1.43-20.2,3.51-25.51,11.52-5.31-8.01-14.89-12.95-25.51-11.52-14.88,2.01-24.1,16.52-22.25,31.42,4.25,34.38,47.76,52.5,47.76,52.5l47.76-52.5c1.84-14.9-7.37-29.41-22.25-31.42h0Zm0,0"/>
  <path class="cls-8" d="m198.18,131.88h-6.01v66.13h18.04v-54.11c0-6.64-5.39-12.02-12.03-12.02h0Zm0,0"/>
  <path class="cls-3" d="m210.21,198.01h-18.04v138.28c0,13.28-10.77,24.05-24.05,24.05H5.79c0,9.96,8.08,18.04,18.04,18.04h168.34c9.96,0,18.04-8.07,18.04-18.04v-162.33Zm0,0"/>
  <path class="cls-5" d="m55.75,131.88c5.62,22.33,24.08,40.08,47.96,41.92,27.61,2.13,51.25-16.5,57.03-41.92H55.75Zm0,0"/>
  <g class="cls-2">
    <path class="cls-4" d="m133.51,246.36c-2-.27-3.95-.25-5.86-.08-.61,7.95,1.48,16.08,5.95,22.94,1.05,1.61,1.54,3.9,1.29,5.98-1.97,15.98-27.02,34.75-44.11,41.17l-3.85,1.45c10.95,8.22,21.07,12.47,21.07,12.47,0,0,43.51-18.13,47.77-52.5,1.84-14.9-7.38-29.41-22.26-31.42h0Zm0,0"/>
    <path d="m198.18,126.25h-30.79c.23-2.1.35-4.24.35-6.4,0-24.92-17.74-66.59-18.49-68.35-.79-1.85-2.51-3.13-4.5-3.37-2-.24-3.97.61-5.17,2.21l-10.95,14.59-15.17-60.68c-.49-1.96-2-3.52-3.96-4.06-1.95-.54-4.04.01-5.48,1.45-.57.57-14.11,14.2-27.81,35.5-12.75,19.83-27.95,50.28-27.95,82.7,0,2.14.12,4.28.34,6.4h-30.79c-9.73,0-17.65,7.92-17.65,17.65v216.44c0,13.05,10.62,23.66,23.66,23.66h168.34c13.05,0,23.66-10.61,23.66-23.66v-216.44c0-9.73-7.92-17.65-17.65-17.65h0Zm0,11.25c3.53,0,6.4,2.87,6.4,6.4v48.49h-90.96v-13.07c24.31-2.28,44.43-19.19,51.45-41.81h33.11Zm-138.66-17.65c0-44.31,31.35-86,45.58-102.64l15.48,61.92c.53,2.11,2.22,3.72,4.34,4.15,2.13.43,4.31-.4,5.61-2.14l12.03-16.04c5.16,13.46,13.92,38.71,13.92,54.75,0,2.17-.16,4.3-.44,6.4H59.95c-.28-2.12-.44-4.25-.44-6.4h0Zm-41.7,17.65h135.32c-6.42,16.35-21.47,28.4-39.52,30.5v-12.07c0-3.11-2.52-5.62-5.62-5.62s-5.62,2.52-5.62,5.62v12.07c-11.69-1.37-22.58-6.96-30.51-15.82-2.07-2.32-5.63-2.51-7.95-.44-2.31,2.07-2.51,5.63-.44,7.95,10.07,11.24,24,18.21,38.9,19.62v13.08H11.42v-48.49c0-3.53,2.87-6.4,6.4-6.4h0Zm174.35,235.25H23.83c-6.84,0-12.41-5.57-12.41-12.41v-156.7h193.16v156.7c0,6.84-5.57,12.41-12.41,12.41h0Zm0,0"/>
  </g>
  <path d="m129.86,240.48c-8.23,0-16.01,3.16-21.86,8.7-5.85-5.54-13.63-8.7-21.86-8.7-17.57,0-31.86,14.29-31.86,31.86s9.04,33.69,26.13,47.55c12.51,10.14,24.91,15.36,25.43,15.58.69.29,1.43.43,2.16.43s1.47-.14,2.16-.43c.36-.15,8.99-3.78,19.09-10.82,2.55-1.77,3.18-5.28,1.4-7.83-1.78-2.55-5.28-3.18-7.83-1.4-6.21,4.33-11.86,7.25-14.81,8.67-8.94-4.31-42.48-22.43-42.48-51.75,0-11.36,9.25-20.61,20.61-20.61,6.91,0,13.34,3.46,17.18,9.25,1.04,1.57,2.8,2.52,4.69,2.52s3.64-.95,4.69-2.52c3.84-5.79,10.26-9.25,17.18-9.25,11.36,0,20.61,9.25,20.61,20.61,0,9.64-3.62,18.98-10.77,27.77-1.96,2.41-1.59,5.95.82,7.91,2.41,1.96,5.95,1.59,7.92-.82,8.81-10.84,13.29-22.57,13.29-34.87,0-17.57-14.29-31.86-31.86-31.86h0Zm0,0"/>
</svg>