<?xml version="1.0" encoding="UTF-8"?>
<svg id="Livello_1" data-name="Livello 1" xmlns="http://www.w3.org/2000/svg" viewBox="0 0 143.52 384">
  <defs>
    <style>
      .cls-1 {
        fill: #eceaec;
      }

      .cls-2 {
        fill: #ffd18d;
      }

      .cls-3 {
        fill: #fbbd80;
      }

      .cls-4 {
        fill: #dbd8db;
      }
    </style>
  </defs>
  <path class="cls-1" d="m47.71,342.86v23.49c0,6.64,5.38,12.02,12.02,12.02h24.05l5.39-35.51h-41.46Zm0,0"/>
  <path class="cls-4" d="m47.71,360.34h18.04c6.64,0,12.02,5.38,12.02,12.02v6.01h6.01c6.64,0,12.02-5.38,12.02-12.02v-42.09h-48.1v36.07h0Zm0,0"/>
  <path class="cls-2" d="m125.87,318.25h-6.01c-6.64,0-12.02-5.38-12.02-12.02V76.1c3.58-2.08,6.01-5.91,6.01-10.36,0-4-.22-8.01-.66-11.99l-1.78-16.04c-2.03-18.27-17.47-32.09-35.85-32.09h-7.57c-18.38,0-33.82,13.82-35.85,32.09l-1.79,16.04c-.44,3.98-.66,7.98-.66,11.99,0,4.44,2.43,8.27,6.01,10.36v230.13c0,6.64-5.38,12.02-12.02,12.02h-6.01c-6.64,0-12.02,5.38-12.02,12.02s5.38,12.02,12.02,12.02h108.22c6.64,0,12.02-5.38,12.02-12.02s-5.38-12.02-12.02-12.02h0Zm0,0"/>
  <path class="cls-3" d="m125.87,318.25h-6.01c-6.64,0-12.02-5.38-12.02-12.02V76.13c3.54-2.02,6-5.72,6.01-10.04.01-4.12-.21-8.23-.66-12.33l-1.78-16.04c-1.52-13.64-10.51-24.78-22.61-29.56l5.32,37.89c1.01,7.23-4.6,13.7-11.91,13.7H30.01c-.12,2.05-.34,4.08-.34,6.13.03,6.59,5.43,11.9,12.02,11.9h48.1v264.54h36.07c6.64,0,12.02-5.39,12.02-12.03s-5.38-12.02-12.02-12.02h0Zm0,0"/>
  <path d="m125.87,312.63h-6.01c-3.53,0-6.4-2.87-6.4-6.4V79c3.68-3.24,6.01-7.98,6.01-13.25,0-4.2-.23-8.44-.7-12.61l-1.78-16.04C114.64,15.95,96.82,0,75.54,0h-7.57C46.7,0,28.88,15.95,26.53,37.09l-1.78,16.04c-.47,4.17-.7,8.41-.7,12.61,0,9.73,7.92,17.65,17.65,17.65h30.37l30.14,32.65v31.59l-36.54-39.3c-2.12-2.28-5.68-2.41-7.95-.29-2.28,2.12-2.41,5.68-.29,7.95l44.78,48.17v127.69l-8.28-8.97c-2.11-2.28-5.67-2.42-7.95-.32-2.29,2.11-2.43,5.67-.32,7.95l16.71,18.1c1.16,8.61,8.56,15.27,17.49,15.27h6.01c3.53,0,6.4,2.87,6.4,6.4s-2.87,6.4-6.4,6.4H17.65c-3.53,0-6.4-2.87-6.4-6.4s2.87-6.4,6.4-6.4h6.01c9.74,0,17.65-7.91,17.65-17.65v-15.6l18.94,20.66c1.11,1.21,2.62,1.82,4.14,1.82,1.36,0,2.72-.49,3.8-1.48,2.29-2.1,2.45-5.66.34-7.95l-27.23-29.7v-31.52l8.28,8.97c1.11,1.2,2.62,1.81,4.13,1.81,1.36,0,2.73-.49,3.81-1.49,2.29-2.11,2.43-5.66.32-7.95l-16.55-17.92v-31.51l34.64,37.52c1.11,1.2,2.62,1.81,4.13,1.81,1.37,0,2.73-.49,3.82-1.49,2.28-2.11,2.42-5.67.32-7.95l-42.91-46.48v-75.96c0-3.11-2.52-5.62-5.62-5.62s-5.62,2.52-5.62,5.62v204.41c0,3.53-2.87,6.4-6.4,6.4h-6.01c-9.73,0-17.65,7.92-17.65,17.65s7.92,17.65,17.65,17.65h24.44v18.42c0,9.73,7.92,17.65,17.65,17.65h24.05c9.74,0,17.65-7.92,17.65-17.65,0-3.11-2.52-5.62-5.62-5.62s-5.62,2.52-5.62,5.62c0,3.53-2.87,6.4-6.4,6.4h-24.05c-3.53,0-6.4-2.87-6.4-6.4v-18.42h72.53c9.73,0,17.65-7.92,17.65-17.65s-7.92-17.65-17.65-17.65h0ZM35.3,65.75c0-3.79.21-7.61.63-11.37l1.79-16.04c1.65-14.83,13.71-26.15,28.42-27.02v6.34c0,3.11,2.52,5.62,5.62,5.62s5.62-2.52,5.62-5.62v-6.34c14.71.88,26.77,12.2,28.42,27.02l1.78,16.04c.42,3.76.63,7.58.63,11.37,0,3.53-2.87,6.4-6.4,6.4h-60.12c-3.53,0-6.4-2.87-6.4-6.4h0Zm52.08,17.65h14.44c.13,0,.26,0,.39,0v16.07l-14.83-16.06Zm0,0"/>
  <path d="m85.63,191.61c1.36,0,2.73-.49,3.82-1.49,2.28-2.1,2.42-5.67.32-7.95l-19.89-21.54c-2.11-2.28-5.66-2.43-7.95-.32-2.28,2.11-2.43,5.67-.32,7.95l19.89,21.55c1.11,1.2,2.62,1.81,4.13,1.81h0Zm0,0"/>
</svg>