<?xml version="1.0" encoding="UTF-8"?>
<svg id="Livello_1" data-name="Livello 1" xmlns="http://www.w3.org/2000/svg" xmlns:xlink="http://www.w3.org/1999/xlink" viewBox="0 0 84 384">
  <defs>
    <style>
      .cls-1 {
        fill: none;
      }

      .cls-2 {
        clip-path: url(#clippath);
      }

      .cls-3 {
        fill: #f128f7;
      }

      .cls-4 {
        fill: #eceaec;
      }

      .cls-5 {
        fill: #b500ba;
      }

      .cls-6 {
        fill: #dbd8db;
      }
    </style>
    <clipPath id="clippath">
      <rect class="cls-1" width="84" height="384"/>
    </clipPath>
  </defs>
  <path class="cls-3" d="m78.07,101.81c0-6.94-1.97-13.43-5.37-18.93-4.34-7.02-3.9-15.71.32-22.8,4.45-7.47,6.27-16.69,4.19-26.38-2.9-13.53-13.86-24.43-27.4-27.27C26.48,1.54,5.93,19.21,5.93,41.69c0,6.95,1.97,13.44,5.38,18.94,4.22,6.82,4.22,15.41,0,22.23-3.41,5.5-5.38,11.99-5.38,18.95s1.97,13.44,5.38,18.95c4.22,6.82,4.22,15.41,0,22.23-3.41,5.5-5.38,12-5.38,18.95s1.97,13.44,5.38,18.94c4.22,6.82,4.22,15.41,0,22.23-3.41,5.5-5.38,11.99-5.38,18.95s1.97,13.44,5.38,18.95c4.22,6.82,4.22,15.41,0,22.23-3.41,5.5-5.38,12-5.38,18.95v72.15c0,13.29,10.77,24.05,24.05,24.05h24.05c13.28,0,24.05-10.77,24.05-24.05v-72.15c0-6.95-1.97-13.44-5.38-18.95-4.22-6.82-4.22-15.41,0-22.23,3.41-5.5,5.38-11.99,5.38-18.95s-1.97-13.44-5.38-18.95c-4.22-6.82-4.22-15.41,0-22.23,3.41-5.5,5.38-12,5.38-18.94s-1.97-13.45-5.38-18.95c-4.22-6.82-4.22-15.41,0-22.23,3.41-5.5,5.38-11.99,5.38-18.95h0Zm0,0"/>
  <path class="cls-5" d="m78.07,161.93c0-6.95-1.97-13.45-5.38-18.95-4.22-6.82-4.22-15.41,0-22.23,3.41-5.51,5.38-12,5.38-18.95s-2.01-13.59-5.5-19.13c-4.32-6.89-3.83-15.48.36-22.45,4.51-7.5,6.37-16.77,4.28-26.52-.45-2.1-1.36-4.12-2.49-5.95C63.06,8.9,53.21,6.17,43.82,5.71l1.05,4.76c1.61,7.24,5.62,13.54,10.59,19.05,2.01,2.23,3.47,4.96,4.11,7.96,1.29,6.04-.41,10.61-2.06,13.39-7.8,13.12-7.86,29.02-.16,41.49,1.75,2.82,2.67,6.09,2.67,9.44s-.92,6.63-2.67,9.45c-7.88,12.71-7.88,28.5,0,41.23,1.75,2.81,2.67,6.07,2.67,9.44s-.92,6.63-2.67,9.45c-7.88,12.72-7.88,28.51,0,41.24,1.75,2.8,2.67,6.07,2.67,9.43s-.92,6.63-2.67,9.45c-7.96,12.85-7.88,28.84.25,41.64,1.73,2.71,2.42,5.96,2.42,9.18v72c0,3.32-2.69,6.01-6.01,6.01H6.78c2.68,10.36,12,18.04,23.2,18.04h24.05c13.28,0,24.05-10.77,24.05-24.05v-72.15c0-6.95-1.97-13.44-5.38-18.95-4.22-6.82-4.22-15.41,0-22.23,3.41-5.5,5.38-12,5.38-18.95s-1.97-13.44-5.38-18.95c-4.22-6.82-4.22-15.41,0-22.23,3.41-5.5,5.38-11.99,5.38-18.94h0Zm0,0"/>
  <path class="cls-4" d="m5.93,330.28v24.05c0,13.29,10.77,24.05,24.05,24.05h24.05c13.28,0,24.05-10.77,24.05-24.05l-18.03-24.05H5.93Zm0,0"/>
  <g class="cls-2">
    <path class="cls-6" d="m29.98,378.38h24.05c13.29,0,24.05-10.77,24.05-24.05v-24.05h-18.04v23.64c0,3.32-2.69,6.01-6.01,6.01H6.78c2.68,10.36,12,18.45,23.2,18.45h0Zm0,0"/>
    <path d="m83.7,161.93c0-7.76-2.15-15.34-6.22-21.91-3.11-5.03-3.11-11.28,0-16.3,4.07-6.57,6.22-14.15,6.22-21.91s-2.15-15.32-6.21-21.88c-3.1-5.02-2.97-11.36.37-16.96,5.39-9.07,7.12-19.88,4.85-30.44-3.35-15.62-16.11-28.32-31.75-31.59-10.32-2.16-20.9-.52-29.82,4.64-2.69,1.55-3.61,5-2.05,7.69,1.55,2.69,5,3.61,7.69,2.05,6.61-3.82,14.17-4.99,21.88-3.37,11.36,2.38,20.63,11.61,23.06,22.95,1.7,7.89.48,15.61-3.52,22.33-5.44,9.14-5.54,20.11-.27,28.63,2.96,4.79,4.52,10.31,4.52,15.97s-1.57,11.19-4.54,15.99c-5.38,8.68-5.38,19.47,0,28.15,2.97,4.79,4.54,10.32,4.54,15.99s-1.57,11.19-4.54,15.98c-5.38,8.68-5.38,19.47,0,28.15,2.97,4.79,4.54,10.32,4.54,15.98s-1.57,11.2-4.54,15.98c-5.38,8.68-5.38,19.47,0,28.16,2.97,4.79,4.54,10.32,4.54,15.98v42.47h-6.4c-3.11,0-5.62,2.52-5.62,5.62s2.52,5.62,5.62,5.62h6.4v18.42c0,10.16-8.27,18.43-18.42,18.43h-24.05c-10.16,0-18.42-8.27-18.42-18.43v-18.42h30.45c3.1,0,5.62-2.52,5.62-5.62s-2.52-5.62-5.62-5.62H11.55v-42.47c0-5.67,1.57-11.2,4.54-15.98,5.38-8.68,5.38-19.47,0-28.16-2.97-4.79-4.54-10.32-4.54-15.98s1.57-11.2,4.54-15.98c5.38-8.68,5.38-19.47,0-28.15-2.97-4.79-4.54-10.32-4.54-15.98s1.57-11.2,4.54-15.99c5.38-8.68,5.38-19.47,0-28.16-2.97-4.79-4.54-10.32-4.54-15.98s1.57-11.2,4.54-15.98c5.38-8.68,5.38-19.47,0-28.15-2.97-4.79-4.54-10.32-4.54-15.98,0-3.49.58-6.9,1.73-10.15,1.04-2.93-.5-6.14-3.43-7.18-2.93-1.04-6.14.5-7.18,3.43-1.58,4.46-2.38,9.14-2.38,13.9,0,7.76,2.15,15.33,6.22,21.91,3.11,5.03,3.11,11.28,0,16.31-4.07,6.57-6.22,14.14-6.22,21.91s2.15,15.34,6.22,21.91c3.12,5.03,3.12,11.28,0,16.3-4.07,6.57-6.22,14.15-6.22,21.91s2.15,15.34,6.22,21.91c3.11,5.03,3.11,11.28,0,16.31-4.07,6.57-6.22,14.15-6.22,21.91s2.15,15.34,6.22,21.91c3.11,5.03,3.11,11.28,0,16.31-4.07,6.57-6.22,14.15-6.22,21.91v72.15c0,16.36,13.31,29.68,29.67,29.68h24.05c16.36,0,29.67-13.31,29.67-29.68v-72.15c0-7.76-2.15-15.34-6.22-21.91-3.11-5.03-3.11-11.28,0-16.31,4.07-6.57,6.22-14.15,6.22-21.91s-2.15-15.34-6.22-21.91c-3.11-5.03-3.11-11.27,0-16.31,4.07-6.57,6.22-14.14,6.22-21.91h0Zm0,0"/>
  </g>
  <path d="m24.35,354.32c0,3.11,2.51,5.63,5.62,5.63h24.05c3.11,0,5.62-2.52,5.62-5.63s-2.52-5.62-5.62-5.62h-24.05c-3.11,0-5.62,2.52-5.62,5.62h0Zm0,0"/>
</svg>