<?xml version="1.0" encoding="UTF-8"?>
<svg id="Livello_1" data-name="Livello 1" xmlns="http://www.w3.org/2000/svg" xmlns:xlink="http://www.w3.org/1999/xlink" viewBox="0 0 360 384">
  <defs>
    <style>
      .cls-1 {
        fill: none;
      }

      .cls-2 {
        clip-path: url(#clippath);
      }

      .cls-3 {
        fill: #d7deff;
      }

      .cls-4 {
        fill: #6388ad;
      }

      .cls-5 {
        fill: #4bc3ef;
      }

      .cls-6 {
        fill: #7ad7ee;
      }
    </style>
    <clipPath id="clippath">
      <rect class="cls-1" y="0" width="360" height="384"/>
    </clipPath>
  </defs>
  <g>
    <path class="cls-6" d="m332.46,17.65l-21.8-12.03-21.8,12.03-21.79-12.03-21.8,12.03-21.8-12.03-21.8,12.03-21.79-12.03-21.78,12.03-21.79-12.03-21.77,12.03-21.78-12.03-21.76,12.03-21.78-12.03-21.78,12.03L5.65,5.63v372.75h0l21.84-12.02,21.8,12.02,21.8-12.02,21.79,12.02,21.8-12.02,21.8,12.02,21.8-12.02,21.79,12.02,21.78-12.02,21.79,12.02,21.77-12.02,21.78,12.02,21.76-12.02,21.78,12.02,21.78-12.02,21.79,12.02V5.63l-21.84,12.03Zm0,0"/>
    <path class="cls-5" d="m306.25,342.3H53.75c-13.28,0-24.05-10.77-24.05-24.05V65.75c0-13.28,10.77-24.05,24.05-24.05h252.51c13.28,0,24.05,10.77,24.05,24.05v252.51c0,13.28-10.77,24.05-24.05,24.05h0Zm0,0"/>
    <g class="cls-2">
      <path class="cls-5" d="m335.92,336.59c0,4.38-2.04,8.42-5.87,10.53l-13.51,7.45c-3.63,2-7.97,2.01-11.62,0l-7.26-4.01c-5.46-3.02-11.99-3.02-17.44,0l-13.03,7.2-13.07-7.21c-5.46-3.01-11.98-3.01-17.44,0l-13.06,7.21-13.09-7.22c-5.45-3.01-11.98-3-17.42,0l-13.06,7.21-13.07-7.21c-5.45-3-11.96-3.01-17.43,0l-13.09,7.22-13.09-7.22c-5.44-3-11.94-3-17.42,0l-13.09,7.22-13.09-7.22c-5.45-3.01-11.97-3.01-17.43,0l-13.08,7.22-13.09-7.22c-5.44-3-11.95-3-17.41,0l-13.14,7.23v20.59l21.84-12.03,21.81,12.03,21.79-12.03,21.79,12.03,21.8-12.03,21.8,12.03,21.8-12.03,21.79,12.03,21.78-12.03,21.79,12.03,21.77-12.03,21.78,12.03,21.76-12.03,21.79,12.03,21.78-12.03,21.79,12.03V5.63l-18.38,9.93v321.04h0Zm0,0"/>
      <path d="m354.43,0c-.95-.02-1.94.2-2.84.7l-19.12,10.53-19.09-10.53c-1.69-.93-3.74-.93-5.43,0l-19.08,10.53-19.07-10.52c-1.69-.93-3.75-.93-5.44,0l-19.08,10.52L226.19.7c-1.69-.93-3.74-.93-5.43,0l-19.08,10.52L182.6.7c-1.69-.93-3.75-.93-5.44,0l-19.06,10.52L139.03.7c-1.69-.94-3.74-.94-5.43,0l-19.06,10.52L95.48.7c-1.69-.94-3.75-.94-5.44,0l-19.04,10.52L51.94.7c-1.69-.93-3.74-.93-5.43,0l-19.07,10.52L8.37.7c-1.74-.96-3.86-.93-5.58.08C1.08,1.79.02,3.64.02,5.63v372.75c0,1.99,1.05,3.83,2.77,4.84,1.71,1.01,3.83,1.04,5.57.08l19.12-10.53,19.09,10.53c1.69.93,3.75.93,5.43,0l19.08-10.52,19.08,10.52c1.69.93,3.74.93,5.43,0l19.08-10.53,19.08,10.53c1.69.93,3.74.93,5.43,0l19.08-10.53,19.08,10.53c1.69.93,3.74.93,5.44,0l19.06-10.52,19.07,10.52c1.69.93,3.75.93,5.44,0l19.05-10.52,19.07,10.52c1.69.93,3.75.93,5.44,0l19.04-10.52,19.06,10.52c.85.46,1.79.7,2.72.7s1.88-.23,2.72-.7l19.07-10.52,19.07,10.52c.83.46,1.82.7,2.77.7,3.1,0,5.62-2.52,5.62-5.62V5.63c0-3.08-2.48-5.58-5.55-5.63h0Zm-5.7,368.87l-13.5-7.45c-1.69-.93-3.74-.93-5.44,0l-19.06,10.52-19.06-10.52c-1.69-.93-3.75-.93-5.44,0l-19.04,10.52-19.06-10.52c-1.69-.93-3.75-.93-5.44,0l-19.05,10.52-19.07-10.52c-1.69-.93-3.75-.93-5.44,0l-19.06,10.52-19.07-10.52c-1.69-.93-3.74-.93-5.43,0l-19.08,10.52-19.08-10.52c-.85-.47-1.78-.7-2.72-.7s-1.87.23-2.72.7l-19.08,10.52-19.08-10.52c-1.69-.93-3.74-.93-5.43,0l-19.08,10.52-19.09-10.52c-1.69-.93-3.74-.93-5.43,0l-13.5,7.43V15.16l13.45,7.42c1.69.93,3.75.93,5.44,0l19.07-10.52,19.06,10.52c1.69.93,3.75.93,5.44,0l19.04-10.52,19.06,10.52c1.7.93,3.75.93,5.44,0l19.05-10.52,19.08,10.52c1.69.93,3.74.93,5.44,0l19.06-10.52,19.07,10.52c1.69.93,3.75.93,5.44,0l19.08-10.52,19.08,10.52c1.69.93,3.74.93,5.43,0l19.08-10.52,19.07,10.52c1.69.93,3.74.93,5.43,0l19.08-10.52,19.09,10.52c1.69.93,3.74.93,5.43,0l13.55-7.46v353.75Zm0,0"/>
    </g>
    <path d="m306.25,36.08H89.82c-3.11,0-5.62,2.52-5.62,5.62s2.52,5.62,5.62,5.62h216.43c10.16,0,18.42,8.27,18.42,18.42v252.51c0,10.16-8.27,18.42-18.42,18.42H53.75c-10.16,0-18.42-8.27-18.42-18.42V65.75c0-10.16,8.27-18.42,18.42-18.42h12.02c3.11,0,5.63-2.52,5.63-5.62s-2.52-5.62-5.63-5.62h-12.02c-16.36,0-29.67,13.31-29.67,29.67v252.51c0,16.36,13.31,29.67,29.67,29.67h252.51c16.36,0,29.67-13.31,29.67-29.67V65.75c0-16.36-13.31-29.67-29.67-29.67h0Zm0,0"/>
    <path d="m155.75,87.01c-3.03.7-4.92,3.72-4.22,6.75.7,3.03,3.72,4.92,6.74,4.22,7.34-1.69,14.66-2.55,21.73-2.55,53.25,0,96.58,43.32,96.58,96.58,0,7.07-.86,14.39-2.55,21.73-.7,3.03,1.19,6.05,4.22,6.74h0c.43.1.85.14,1.27.14,2.56,0,4.88-1.76,5.48-4.36,1.88-8.17,2.84-16.33,2.84-24.25m-9.58,28.47"/>
    <path d="m81.75,163.53c-3.03-.69-6.05,1.19-6.75,4.22-1.88,8.17-2.84,16.33-2.84,24.25,0,59.46,48.38,107.83,107.83,107.83,7.92,0,16.08-.96,24.25-2.84,3.03-.7,4.92-3.72,4.22-6.75-.7-3.03-3.72-4.91-6.74-4.22-7.35,1.69-14.66,2.55-21.73,2.55-53.25,0-96.58-43.33-96.58-96.58,0-7.07.86-14.38,2.55-21.73.69-3.03-1.19-6.05-4.22-6.74h0Zm0,0"/>
  </g>
  <path class="cls-3" d="m244.36,89.94c-26.2-2.98-49.68,10.36-62.86,31.68-13.17-21.32-36.65-34.66-62.86-31.68-36.74,4.18-62.29,42.64-58.94,82.13,7.16,84.09,94.8,133.48,116.81,144.6,3.17,1.61,6.8,1.61,9.98,0,7.63-3.86,23.17-12.32,40.51-25.25l7.93-34.54,37.15-8.92c16.15-20.87,28.69-46.22,31.21-75.89,3.36-39.48-22.2-77.93-58.93-82.12h0Zm0,0"/>
  <path class="cls-4" d="m267.76,168.95c-2.88,49.51-65.21,97.7-117.71,123.92"/>
  <path d="m185.78,323.88c.95-.42,23.56-10.63,49.7-30.49,5.01-3.81,6.2-11.26,2.65-16.64-3.55-5.38-10.5-6.65-15.51-2.83-17.6,13.37-33.69,22.11-41.1,25.85-20.9-10.61-111.15-61.31-111.15-144.92,0-32.87,24.93-59.62,55.57-59.62,18.64,0,35.95,10,46.3,26.76,2.06,3.33,5.54,5.34,9.27,5.34s7.21-2,9.27-5.34c10.36-16.76,27.66-26.76,46.3-26.76,30.64,0,55.57,26.75,55.57,59.62,0,30.79-12.13,60.29-36.05,87.68-4.2,4.8-3.97,12.35.51,16.86,4.48,4.51,11.52,4.26,15.72-.55,27.91-31.96,42.07-66.94,42.07-104,0-46.03-34.91-83.48-77.81-83.48h0c-21.15,0-41.07,9.18-55.57,25.12-14.5-15.93-34.42-25.12-55.57-25.12-42.9,0-77.81,37.46-77.81,83.48s22.57,89.91,65.25,127.03c31.45,27.35,62.55,41.41,63.85,41.99"/>
</svg>