<?xml version="1.0" encoding="UTF-8"?>
<svg id="Livello_1" data-name="Livello 1" xmlns="http://www.w3.org/2000/svg" xmlns:xlink="http://www.w3.org/1999/xlink" viewBox="0 0 156 384">
  <defs>
    <style>
      .cls-1 {
        fill: none;
      }

      .cls-2 {
        clip-path: url(#clippath);
      }

      .cls-3 {
        fill: #f964e7;
      }

      .cls-4 {
        fill: #fff;
      }

      .cls-5 {
        fill: #bc13b0;
      }

      .cls-6 {
        fill: #bf0cb2;
      }
    </style>
    <clipPath id="clippath">
      <rect class="cls-1" y="0" width="156" height="384"/>
    </clipPath>
  </defs>
  <path class="cls-3" d="m65.37,23.97l-14.48-14.48c-4.23-4.24-11.05-5.27-15.92-1.77-6.2,4.46-6.71,13.15-1.55,18.32l14.95,14.94c11.27,11.27,17.61,26.57,17.61,42.51v47.16c0,23.93-8.92,47-25.02,64.71l-6.96,7.66c-18.11,19.92-28.14,45.88-28.14,72.8v60.48c0,23.24,18.84,42.09,42.09,42.09s42.09-18.84,42.09-42.09V83.48c0-22.32-8.87-43.73-24.66-59.52h0Zm0,0"/>
  <path class="cls-3" d="m58.75,211.54l-6.96,7.66c-14.11,15.53-21.89,35.64-21.89,56.62v60.37c0,9.81-6.72,20.39-16.71,23.83,7.58,11.08,20.31,18.36,34.75,18.36,7.82,0,15.14-2.13,21.42-5.85l20.66-126.88v-115c0,29.98-11.1,58.71-31.27,80.89h0Zm0,0"/>
  <path class="cls-5" d="m90.02,336.29v-90.65l-3.01,1.75c-16.69,9.66-27.05,27.6-27.05,46.81v47.89c0,10.89,3.29,21.44,9.4,30.43,12.38-7.33,20.66-20.8,20.66-36.23h0Zm0,0"/>
  <path class="cls-3" d="m114.07,378.27c-19.92,0-36.07-16.15-36.07-36.08v-48.1c0-19.93,16.15-36.07,36.07-36.07s36.07,16.15,36.07,36.07v48.1c0,19.93-16.15,36.08-36.07,36.08h0Zm0,0"/>
  <path class="cls-4" d="m126.1,300.11c0,6.64-5.39,12.03-12.03,12.03s-12.02-5.39-12.02-12.03,5.38-12.02,12.02-12.02,12.03,5.38,12.03,12.02h0Zm0,0"/>
  <g class="cls-2">
    <path class="cls-6" d="m114.07,258.02c-2.04,0-4.02.21-5.97.54.21,8.3,5.2,15.68,12.88,18.88,6.76,2.82,11.13,9.36,11.13,16.66v46.78c0,5.4-2.26,10.66-6.21,14.41-3.56,3.39-8.17,5.11-12.7,4.92-2.12-.1-4.19-.57-6.13-1.39-7.52-3.18-16.23-1.48-22.32,4.34,6.55,9.13,17.22,15.11,29.32,15.11,19.93,0,36.07-16.15,36.07-36.07v-48.1c0-19.93-16.15-36.07-36.07-36.07h0Zm0,0"/>
    <path d="m58.35,371.24c-3.37,1-6.88,1.51-10.43,1.51-10.36,0-19.72-4.35-26.36-11.31,8.54-5.35,13.95-14.81,13.95-25.17v-60.39c0-19.59,7.26-38.36,20.43-52.85l6.96-7.66c8.91-9.8,16.13-20.82,21.5-32.65v54.78c0,3.1,2.52,5.62,5.62,5.62s5.62-2.52,5.62-5.62V83.51c0-23.99-9.34-46.55-26.3-63.52l-14.49-14.48C48.54-.81,38.57-1.82,31.67,3.15c-4.25,3.06-6.93,7.79-7.35,12.96-.42,5.17,1.45,10.24,5.11,13.91l14.94,14.95c4.72,4.72,8.49,10.2,11.21,16.29,1.27,2.84,4.6,4.11,7.43,2.84,2.84-1.27,4.11-4.59,2.84-7.43-3.29-7.34-7.84-13.96-13.53-19.65l-14.95-14.95c-1.33-1.33-2-3.17-1.86-5.05.16-1.9,1.12-3.58,2.71-4.73,2.44-1.75,6.24-1.23,8.66,1.18l14.49,14.49c14.84,14.84,23.01,34.57,23.01,55.56v47.17c0,28.59-10.59,55.98-29.82,77.13l-6.96,7.66c-15.06,16.57-23.36,38.03-23.36,60.42v60.39c0,6.62-3.57,12.65-9.15,15.91-2.34-4.81-3.66-10.21-3.66-15.91v-60.39c0-25.59,9.48-50.1,26.69-69.03l6.96-7.66c17.08-18.79,26.49-43.12,26.49-68.51v-47.18c0-3.11-2.52-5.62-5.62-5.62s-5.63,2.52-5.63,5.62v47.18c0,22.59-8.37,44.23-23.56,60.95l-6.96,7.66C10.72,220.29.2,247.5.2,275.89v60.39c0,26.31,21.41,47.72,47.72,47.72,4.64,0,9.23-.66,13.64-1.98,2.98-.89,4.67-4.02,3.79-7-.88-2.98-4.02-4.67-6.99-3.79h0Zm0,0"/>
  </g>
  <path d="m114.09,252.47c-23,0-41.71,18.71-41.71,41.71v48.11c0,23,18.71,41.71,41.71,41.71s41.71-18.71,41.71-41.71v-48.11c0-23-18.71-41.71-41.71-41.71h0Zm30.46,89.82c0,16.8-13.66,30.46-30.46,30.46s-30.46-13.66-30.46-30.46v-48.11c0-16.8,13.66-30.46,30.46-30.46s30.46,13.66,30.46,30.46v48.11Zm0,0"/>
  <path d="m114.09,282.54c-9.73,0-17.66,7.92-17.66,17.65s7.92,17.65,17.66,17.65,17.65-7.92,17.65-17.65-7.92-17.65-17.65-17.65h0Zm0,24.05c-3.53,0-6.41-2.87-6.41-6.4s2.87-6.4,6.41-6.4,6.4,2.87,6.4,6.4-2.88,6.4-6.4,6.4h0Zm0,0"/>
  <path d="m114.09,330.65c-3.11,0-5.62,2.52-5.62,5.62v6.01c0,3.11,2.52,5.62,5.62,5.62s5.62-2.52,5.62-5.62v-6.01c0-3.11-2.52-5.62-5.62-5.62h0Zm0,0"/>
</svg>