<?xml version="1.0" encoding="UTF-8"?>
<svg id="Livello_1" data-name="Livello 1" xmlns="http://www.w3.org/2000/svg" viewBox="0 0 384 293.82">
  <defs>
    <style>
      .cls-1 {
        fill: #ea074e;
      }

      .cls-2 {
        fill: #ff0b3a;
      }

      .cls-3 {
        fill: #ff0031;
      }

      .cls-4 {
        fill: #ba062c;
      }

      .cls-5 {
        fill: #b20062;
      }

      .cls-6 {
        fill: #cc0572;
      }

      .cls-7 {
        fill: #dd1f7f;
      }

      .cls-8 {
        fill: #e51057;
      }

      .cls-9 {
        fill: #d8002f;
      }
    </style>
  </defs>
  <path class="cls-2" d="m173.96,204.02c0-7.26-7.08-13.48-8.87-20.18-1.85-6.92,1.11-15.85-2.39-21.91-3.56-6.15-12.8-8.02-17.79-13.01-4.99-4.99-6.87-14.24-13.02-17.8-3.67-2.12-10.31-1.88-15-1.76h-54.84c-4.66-.12-10.7-.35-14.35,1.76-6.15,3.56-8.02,12.81-13.01,17.79-4.99,4.99-14.24,6.87-17.8,13.02-3.51,6.07-.54,14.99-2.39,21.91-1.79,6.69-8.87,12.93-8.87,20.18s7.08,13.49,8.87,20.18c1.85,6.92-1.11,15.85,2.39,21.91,3.56,6.15,12.8,8.02,17.79,13.02,4.99,4.99,6.87,14.23,13.02,17.79,6.06,3.51,14.99.55,21.91,2.39,6.7,1.79,12.92,8.88,20.18,8.88s13.49-7.09,20.18-8.88c6.92-1.85,15.85,1.12,21.91-2.39,6.15-3.56,8.02-12.8,13.02-17.8,4.99-4.99,14.24-6.86,17.79-13.01,3.51-6.07.55-14.99,2.39-21.91,1.79-6.7,8.88-12.93,8.88-20.18h0Zm-84.17,48.1c-26.56,0-48.09-21.54-48.09-48.1s21.53-48.09,48.09-48.09,48.1,21.53,48.1,48.09-21.54,48.1-48.1,48.1h0Zm0,0"/>
  <path class="cls-8" d="m89.79,95.8c-6.64,0-12.02,5.38-12.02,12.02v18.04h24.05v-18.04c0-6.64-5.39-12.02-12.03-12.02h0Zm0,0"/>
  <path class="cls-7" d="m77.77,155.93h12.02c11.38,0,21.82,3.97,30.06,10.58v-28.62c0-9.96-8.07-18.03-18.04-18.03h-24.05c-9.96,0-18.04,8.08-18.04,18.03s8.08,18.04,18.04,18.04h0Zm0,0"/>
  <path class="cls-3" d="m378.38,204.02c0-7.26-7.08-13.48-8.87-20.18-1.85-6.92,1.11-15.85-2.39-21.91-3.56-6.15-12.8-8.02-17.79-13.01-4.99-4.99-6.87-14.24-13.01-17.8-3.67-2.12-10.3-1.88-15-1.76h-54.84c-4.66-.12-10.7-.35-14.35,1.76-6.15,3.56-8.02,12.81-13.01,17.79-4.99,4.99-14.24,6.87-17.79,13.02-3.51,6.07-.54,14.99-2.39,21.91-1.79,6.69-8.87,12.92-8.87,20.18s7.08,13.49,8.87,20.18c1.85,6.92-1.12,15.85,2.39,21.91,3.56,6.15,12.8,8.02,17.8,13.02,4.99,4.99,6.86,14.23,13.01,17.79,6.06,3.51,14.99.55,21.91,2.39,6.69,1.79,12.92,8.88,20.18,8.88s13.48-7.09,20.18-8.88c6.92-1.85,15.85,1.12,21.91-2.39,6.15-3.56,8.02-12.8,13.02-17.8,4.99-4.99,14.24-6.86,17.8-13.01,3.51-6.07.54-14.99,2.39-21.91,1.79-6.7,8.87-12.93,8.87-20.18h0Zm-84.17,48.1c-26.56,0-48.1-21.54-48.1-48.1s21.54-48.09,48.1-48.09,48.09,21.53,48.09,48.09-21.53,48.1-48.09,48.1h0Zm0,0"/>
  <path class="cls-1" d="m294.21,95.8c-6.64,0-12.03,5.38-12.03,12.02v18.04h24.05v-18.04c0-6.64-5.38-12.02-12.02-12.02h0Zm0,0"/>
  <path class="cls-7" d="m282.18,155.93h12.03c11.38,0,21.82,3.97,30.06,10.58v-28.62c0-9.96-8.07-18.03-18.04-18.03h-24.05c-9.96,0-18.03,8.08-18.03,18.03s8.07,18.04,18.03,18.04h0Zm0,0"/>
  <path class="cls-5" d="m99.82,136.69c-1.18,1.07-2.64,1.56-4.18,1.45-6.28-.54-12.69-.2-19.03,1.03-5.12,1-10.17,2.67-15.04,4.96l-.58.27c2.62,6.73,9.12,11.52,16.77,11.52h12.02c11.38,0,21.82,3.97,30.06,10.58v-28.62c0-9.96-8.07-18.03-18.04-18.03v12.29c0,1.73-.73,3.38-2,4.55h0Zm0,0"/>
  <path class="cls-6" d="m304.23,136.69c-1.17,1.07-2.64,1.56-4.17,1.45-6.29-.54-12.69-.2-19.03,1.03-5.12,1-10.17,2.67-15.04,4.96l-.58.27c2.62,6.73,9.12,11.52,16.77,11.52h12.03c11.38,0,21.82,3.97,30.06,10.58v-28.62c0-9.96-8.07-18.03-18.04-18.03v12.29c0,1.73-.73,3.38-2,4.55h0Zm0,0"/>
  <path class="cls-9" d="m173.96,204.02c0-7.26-7.08-13.48-8.87-20.18-1.85-6.92,1.11-15.85-2.39-21.91-3.56-6.15-12.8-8.02-17.79-13.01-.29-.29-.54-.63-.8-.95l-.61,1.21c-3.39,6.71-2.16,15,3,21.26.02,1.09-.02,2.56-.04,3.34-.11,4.1-.25,9.21,1.23,14.71,1.43,5.38,4.08,9.66,6.24,13.16.31.5.91,1.48,1.43,2.36-.52.89-1.13,1.89-1.46,2.42-2.12,3.44-4.77,7.73-6.22,13.11-1.46,5.5-1.32,10.6-1.21,14.75.02.74.05,1.63.06,2.46-.87.5-1.85,1.02-2.33,1.28-3.6,1.95-8.07,4.36-12.03,8.33-3.99,3.97-6.4,8.46-8.39,12.14-.36.66-.79,1.47-1.19,2.21-.96,0-2.02-.03-2.7-.05-4.09-.11-9.15-.22-14.56,1.23-5.38,1.43-9.66,4.08-13.1,6.21-.47.29-1.49.92-2.41,1.45-.93-.53-1.96-1.17-2.43-1.45-3.44-2.13-7.73-4.77-13.11-6.21-4.24-1.13-8.16-1.28-11.1-1.28-1.24,0-2.44.03-3.77.06-.82.02-1.81.06-2.69.07-5.48-5.51-14.23-6.8-21.74-2.96l-1.16.6c.29.25.61.48.88.75,4.99,4.99,6.86,14.24,13.01,17.8,6.07,3.51,14.99.54,21.91,2.39,6.7,1.79,12.93,8.87,20.18,8.87s13.48-7.08,20.18-8.87c6.92-1.85,15.85,1.11,21.91-2.39,6.15-3.56,8.02-12.8,13.02-17.8,4.99-4.99,14.24-6.86,17.8-13.02,3.51-6.06.54-14.99,2.39-21.91,1.79-6.69,8.87-12.92,8.87-20.18h0Zm0,0"/>
  <path class="cls-4" d="m378.38,204.02c0-7.26-7.08-13.48-8.87-20.18-1.85-6.92,1.11-15.85-2.39-21.91-3.56-6.15-12.8-8.02-17.79-13.01-.29-.29-.53-.63-.8-.95l-.62,1.21c-3.39,6.71-2.16,15,3,21.26.02,1.09-.02,2.56-.04,3.34-.11,4.1-.25,9.21,1.23,14.71,1.43,5.38,4.08,9.66,6.24,13.16.31.5.91,1.48,1.43,2.36-.52.89-1.13,1.89-1.46,2.42-2.12,3.44-4.77,7.73-6.21,13.11-1.46,5.5-1.32,10.6-1.21,14.75.02.74.05,1.63.06,2.46-.88.5-1.85,1.02-2.32,1.28-3.6,1.95-8.07,4.36-12.03,8.33-3.99,3.97-6.4,8.46-8.39,12.14-.36.66-.79,1.47-1.19,2.21-.96,0-2.02-.03-2.7-.05-4.09-.11-9.16-.22-14.56,1.23-5.38,1.43-9.66,4.08-13.1,6.21-.47.29-1.49.92-2.41,1.45-.93-.53-1.95-1.17-2.43-1.45-3.44-2.13-7.73-4.77-13.11-6.21-4.24-1.13-8.15-1.28-11.09-1.28-1.24,0-2.44.03-3.78.06-.82.02-1.81.06-2.69.07-5.48-5.51-14.23-6.8-21.73-2.96l-1.17.6c.29.25.61.48.88.75,4.99,4.99,6.86,14.24,13.01,17.8,6.07,3.51,14.99.54,21.91,2.39,6.7,1.79,12.93,8.87,20.18,8.87s13.48-7.08,20.18-8.87c6.92-1.85,15.85,1.11,21.91-2.39,6.15-3.56,8.02-12.8,13.02-17.8s14.24-6.86,17.8-13.02c3.51-6.06.54-14.99,2.39-21.91,1.79-6.69,8.87-12.92,8.87-20.18h0Zm0,0"/>
  <path d="m378.43,189.18c-1.52-2.46-2.95-4.78-3.49-6.79-.58-2.17-.5-4.99-.43-7.98.13-4.9.27-10.45-2.53-15.29-2.85-4.92-7.77-7.57-12.1-9.91-2.6-1.4-5.05-2.73-6.59-4.26-1.54-1.54-2.86-3.99-4.26-6.59-2.34-4.34-5-9.26-9.91-12.1-4.42-2.56-9.42-2.66-13.98-2.57-3.23-4.3-7.9-7.46-13.29-8.78v-7.08c0-4.65-1.8-8.87-4.75-12.02,2.94-3.16,4.75-7.38,4.75-12.02,0-3.11-2.52-5.62-5.62-5.62s-5.62,2.52-5.62,5.62c0,3.53-2.87,6.4-6.4,6.4s-6.4-2.87-6.4-6.4v-18.04c0-3.53,2.87-6.4,6.4-6.4,2.28,0,4.4,1.23,5.55,3.2,1.55,2.69,5,3.61,7.68,2.05,2.69-1.55,3.61-5,2.05-7.68-2.98-5.16-8.41-8.46-14.32-8.79.82-5.04-.52-10.39-4.15-14.52l-11.9-13.55c-4.06-4.63-10.02-6.61-15.7-5.82-1.59-8.1-8.75-14.23-17.32-14.23h-18.03c-4.64,0-8.87,1.8-12.03,4.75-3.15-2.94-7.38-4.75-12.02-4.75h-24.05c-4.64,0-8.87,1.8-12.02,4.75-3.16-2.94-7.38-4.75-12.02-4.75h-18.03c-8.57,0-15.72,6.13-17.32,14.23-5.68-.79-11.64,1.2-15.7,5.82l-11.9,13.55c-3.62,4.12-4.97,9.48-4.14,14.52-9.28.5-16.68,8.22-16.68,17.62v18.04c0,4.64,1.8,8.87,4.75,12.02-2.94,3.16-4.75,7.38-4.75,12.02v7.08c-10.34,2.53-18.04,11.87-18.04,22.98,0,7.84,3.84,14.81,9.74,19.11-16.55,9.17-27.77,26.8-27.77,47.02,0,29.62,24.1,53.72,53.72,53.72s53.72-24.1,53.72-53.72c0-15.93-6.98-30.26-18.04-40.11v-26.02c0-.97-.07-1.93-.18-2.88,1.48.13,2.79.41,3.77.97,2.16,1.25,3.86,4.39,5.65,7.71,1.72,3.19,3.5,6.5,6.2,9.2,2.7,2.7,6,4.48,9.2,6.21,3.32,1.79,6.45,3.48,7.71,5.64,1.21,2.1,1.12,5.63,1.02,9.37-.1,3.66-.2,7.44.8,11.18.96,3.6,2.9,6.75,4.78,9.79,2,3.25,3.9,6.32,3.9,8.93s-1.89,5.68-3.9,8.93c-1.88,3.04-3.82,6.19-4.78,9.79-1,3.74-.9,7.53-.8,11.18.1,3.74.19,7.27-1.02,9.37-1.25,2.16-4.39,3.86-7.71,5.65-3.19,1.72-6.5,3.51-9.19,6.21-2.7,2.7-4.49,6-6.21,9.2-1.79,3.32-3.49,6.46-5.65,7.71-2.1,1.21-5.63,1.12-9.37,1.02-3.66-.09-7.44-.2-11.18.8-3.61.96-6.75,2.91-9.8,4.78-3.25,2.01-6.32,3.9-8.93,3.9s-5.68-1.89-8.93-3.9c-3.04-1.88-6.19-3.82-9.79-4.78-3.74-1-7.52-.9-11.18-.8-3.74.1-7.27.19-9.37-1.02-2.16-1.25-3.86-4.39-5.65-7.71-1.72-3.2-3.5-6.5-6.2-9.2s-6-4.48-9.2-6.2c-3.32-1.79-6.45-3.48-7.71-5.65-1.21-2.1-1.12-5.63-1.02-9.37.1-3.66.2-7.44-.8-11.18-.96-3.61-2.9-6.75-4.78-9.79-2-3.25-3.9-6.32-3.9-8.94s1.89-5.68,3.9-8.93c1.88-3.04,3.82-6.19,4.78-9.79,1-3.74.9-7.52.8-11.18-.1-3.74-.19-7.27,1.03-9.37,1.25-2.16,4.39-3.86,7.71-5.65,3.19-1.73,6.5-3.51,9.19-6.21.89-.89,1.72-1.89,2.56-3.05,1.8-2.53,1.2-6.04-1.33-7.84-2.53-1.8-6.04-1.21-7.84,1.33-.46.65-.9,1.18-1.34,1.61-1.54,1.54-3.99,2.86-6.59,4.27-4.34,2.34-9.26,4.99-12.1,9.91-2.81,4.85-2.66,10.4-2.54,15.3.08,2.99.16,5.81-.43,7.98-.54,2.01-1.97,4.33-3.48,6.79-2.62,4.23-5.58,9.04-5.58,14.84s2.96,10.61,5.58,14.84c1.52,2.46,2.95,4.78,3.48,6.79.58,2.17.51,4.99.43,7.98-.13,4.9-.27,10.45,2.54,15.3,2.84,4.92,7.76,7.57,12.1,9.91,2.6,1.4,5.05,2.73,6.59,4.26,1.54,1.54,2.86,3.99,4.26,6.59,2.34,4.34,5,9.26,9.91,12.1,4.85,2.8,10.4,2.66,15.3,2.53,2.99-.08,5.81-.15,7.98.43,2.01.54,4.33,1.97,6.79,3.48,4.23,2.61,9.03,5.58,14.84,5.58s10.61-2.96,14.84-5.58c2.46-1.52,4.78-2.95,6.79-3.48,2.17-.58,5-.51,7.98-.43,4.9.12,10.44.27,15.3-2.54,4.91-2.84,7.57-7.76,9.91-12.1,1.4-2.6,2.73-5.05,4.26-6.59,1.54-1.54,3.99-2.86,6.59-4.26,4.34-2.34,9.26-5,12.1-9.91,2.81-4.85,2.66-10.4,2.54-15.3-.08-2.99-.16-5.81.42-7.98.54-2.01,1.97-4.33,3.49-6.79,2.62-4.23,5.58-9.04,5.58-14.84s-2.96-10.61-5.57-14.84c-1.52-2.46-2.95-4.78-3.49-6.79-.58-2.17-.5-4.99-.42-7.98.13-4.9.27-10.45-2.53-15.29-2.85-4.92-7.77-7.57-12.1-9.91-2.6-1.4-5.05-2.73-6.59-4.26-1.53-1.54-2.86-3.99-4.26-6.59-2.34-4.34-5-9.26-9.91-12.1-4.42-2.56-9.42-2.66-13.98-2.57-3.23-4.3-7.9-7.46-13.28-8.78v-7.08c0-4.65-1.8-8.87-4.75-12.02,2.94-3.16,4.75-7.38,4.75-12.02v-18.04c0-.98-.09-1.94-.24-2.87.06,0,.11,0,.17,0,4.7-.3,9.01-2.42,12.12-5.96l11.9-13.55c2.12-2.42,3.45-5.27,4.03-8.23.8.11,1.62.18,2.46.18h18.04c4.64,0,8.87-1.8,12.02-4.75,3.15,2.94,7.38,4.75,12.02,4.75h24.05c4.65,0,8.87-1.8,12.02-4.75,3.16,2.94,7.38,4.75,12.02,4.75h18.04c.84,0,1.66-.06,2.46-.18.58,2.96,1.91,5.8,4.03,8.23l11.9,13.55c3.11,3.54,7.42,5.66,12.12,5.96.05,0,.11,0,.17,0-.15.93-.24,1.89-.24,2.87v18.04c0,4.64,1.8,8.87,4.75,12.02-2.94,3.15-4.75,7.38-4.75,12.02v7.08c-5.38,1.32-10.05,4.48-13.28,8.78-4.55-.1-9.56,0-13.97,2.57-4.92,2.84-7.57,7.76-9.91,12.1-1.4,2.6-2.73,5.05-4.26,6.59-1.53,1.54-3.99,2.86-6.59,4.26-4.34,2.34-9.26,5-12.1,9.91-2.81,4.85-2.66,10.4-2.53,15.3.08,2.99.15,5.81-.43,7.98-.54,2.01-1.97,4.33-3.48,6.79-2.61,4.23-5.58,9.03-5.58,14.84s2.96,10.61,5.58,14.84c1.52,2.46,2.95,4.78,3.48,6.79.58,2.17.51,4.99.43,7.98-.13,4.9-.28,10.45,2.53,15.3,2.84,4.92,7.76,7.57,12.1,9.91,2.59,1.4,5.05,2.73,6.58,4.26,1.53,1.54,2.86,3.99,4.26,6.59,2.34,4.34,5,9.25,9.91,12.1,4.85,2.8,10.4,2.66,15.3,2.53,2.99-.08,5.81-.15,7.98.43,2.01.54,4.33,1.97,6.79,3.49,4.23,2.61,9.04,5.57,14.84,5.57s10.61-2.96,14.84-5.57c2.46-1.52,4.78-2.95,6.79-3.49,2.17-.58,4.99-.5,7.98-.43,4.89.13,10.45.27,15.3-2.53,4.92-2.84,7.57-7.76,9.91-12.1,1.4-2.59,2.72-5.05,4.26-6.58,1.54-1.54,3.99-2.86,6.59-4.26,4.34-2.34,9.25-5,12.1-9.91,2.81-4.85,2.66-10.4,2.53-15.3-.08-2.99-.15-5.81.43-7.98.54-2.01,1.97-4.33,3.49-6.79,2.61-4.23,5.57-9.04,5.57-14.84s-2.96-10.61-5.57-14.84h0Zm-84.22-27.63c23.42,0,42.47,19.05,42.47,42.47s-19.05,42.47-42.47,42.47-42.47-19.05-42.47-42.47,19.05-42.47,42.47-42.47h0Zm-6.4-47.32v-6.4c0-3.53,2.87-6.4,6.4-6.4s6.4,2.87,6.4,6.4v6.4h-12.8Zm-204.41-48.48c0-3.53,2.87-6.4,6.4-6.4s6.4,2.87,6.4,6.4v18.04c0,3.53-2.87,6.4-6.4,6.4s-6.4-2.87-6.4-6.4v-18.04Zm12.8,42.09v6.4h-12.8v-6.4c0-3.53,2.87-6.4,6.4-6.4s6.4,2.87,6.4,6.4h0Zm36.07,96.19c0,23.42-19.05,42.47-42.47,42.47s-42.47-19.05-42.47-42.47,19.05-42.47,42.47-42.47,42.47,19.05,42.47,42.47h0Zm-18.04-66.13v18.32c-7.34-3.77-15.64-5.9-24.44-5.9h-12.02c-6.84,0-12.41-5.57-12.41-12.42s5.57-12.41,12.41-12.41h24.05c6.84,0,12.41,5.57,12.41,12.41h0Zm8.71-101.96l-11.9,13.55c-1.13,1.28-2.69,2.05-4.39,2.16-1.71.11-3.35-.45-4.64-1.58-1.29-1.12-2.06-2.69-2.16-4.39-.11-1.7.45-3.35,1.58-4.63l11.9-13.55c1.26-1.44,3.03-2.17,4.81-2.17,1.5,0,3,.52,4.22,1.59,2.65,2.33,2.91,6.38.59,9.03h0Zm32.98-11.88h-18.04c-3.53,0-6.4-2.87-6.4-6.4s2.87-6.4,6.4-6.4h18.04c3.53,0,6.4,2.87,6.4,6.4s-2.87,6.4-6.4,6.4h0Zm48.1,0h-24.05c-3.53,0-6.4-2.87-6.4-6.4s2.87-6.4,6.4-6.4h24.05c3.53,0,6.4,2.87,6.4,6.4s-2.87,6.4-6.4,6.4h0Zm24.05,0c-3.53,0-6.4-2.87-6.4-6.4s2.87-6.4,6.4-6.4h18.03c3.53,0,6.4,2.87,6.4,6.4s-2.87,6.4-6.4,6.4h-18.03Zm44.88,25.43l-11.9-13.55c-2.33-2.65-2.06-6.7.59-9.03,1.21-1.06,2.72-1.59,4.22-1.59,1.78,0,3.55.73,4.81,2.17l11.9,13.55c1.13,1.29,1.69,2.93,1.58,4.64-.11,1.71-.88,3.27-2.16,4.39-1.29,1.13-2.93,1.69-4.64,1.58-1.7-.11-3.27-.88-4.39-2.16h0Zm9.22,76h24.05c6.84,0,12.41,5.57,12.41,12.41v18.32c-7.34-3.77-15.64-5.9-24.43-5.9h-12.03c-6.84,0-12.41-5.57-12.41-12.42s5.57-12.41,12.41-12.41h0Zm86.67,87.48c-1.88,3.04-3.82,6.18-4.78,9.79-1,3.74-.9,7.52-.8,11.18.1,3.74.19,7.27-1.03,9.37-1.25,2.16-4.39,3.86-7.71,5.64-3.19,1.73-6.5,3.51-9.2,6.21s-4.48,6-6.21,9.2c-1.79,3.32-3.48,6.45-5.65,7.7-2.1,1.21-5.63,1.12-9.37,1.03-3.66-.1-7.44-.2-11.18.8-3.61.96-6.75,2.9-9.79,4.78-3.25,2-6.32,3.9-8.93,3.9s-5.69-1.89-8.94-3.9c-3.04-1.88-6.18-3.82-9.79-4.78-3.74-1-7.52-.9-11.18-.8-3.74.1-7.27.19-9.37-1.03-2.16-1.25-3.86-4.39-5.65-7.71-1.73-3.19-3.51-6.5-6.21-9.2-2.7-2.7-6-4.48-9.2-6.21-3.32-1.79-6.45-3.48-7.7-5.65-1.22-2.1-1.12-5.63-1.02-9.36.09-3.66.2-7.44-.8-11.18-.96-3.61-2.91-6.75-4.78-9.79-2.01-3.25-3.9-6.32-3.9-8.93s1.9-5.69,3.9-8.94c1.88-3.04,3.82-6.19,4.78-9.79,1-3.74.9-7.52.8-11.18-.1-3.74-.19-7.27,1.02-9.37,1.25-2.16,4.39-3.86,7.71-5.65,3.19-1.73,6.5-3.51,9.2-6.21,2.7-2.7,4.48-6,6.2-9.19,1.79-3.32,3.49-6.46,5.65-7.71.98-.57,2.29-.84,3.77-.97-.12.94-.18,1.9-.18,2.88,0,7.84,3.84,14.81,9.74,19.11-16.55,9.17-27.77,26.8-27.77,47.02,0,29.62,24.1,53.72,53.72,53.72s53.72-24.1,53.72-53.72c0-15.93-6.98-30.26-18.04-40.11v-26.02c0-.97-.07-1.93-.18-2.88,1.48.13,2.79.41,3.77.97,2.16,1.25,3.86,4.39,5.65,7.71,1.72,3.19,3.5,6.5,6.2,9.2,2.7,2.7,6,4.48,9.2,6.21,3.32,1.79,6.45,3.48,7.71,5.64,1.21,2.1,1.12,5.63,1.02,9.37-.1,3.66-.2,7.44.8,11.18.97,3.6,2.9,6.75,4.78,9.79,2,3.25,3.9,6.32,3.9,8.93s-1.9,5.68-3.9,8.93h0Zm0,0"/>
</svg>