<?xml version="1.0" encoding="UTF-8"?>
<svg id="Livello_1" data-name="Livello 1" xmlns="http://www.w3.org/2000/svg" viewBox="0 0 83.39 384">
  <defs>
    <style>
      .cls-1 {
        fill: #ec08f9;
      }

      .cls-2 {
        fill: #a804b5;
      }
    </style>
  </defs>
  <path class="cls-1" d="m56.73,83.78c0,13.28-6.73,24.05-15.03,24.05s-15.03-10.77-15.03-24.05,6.73-24.05,15.03-24.05,15.03,10.77,15.03,24.05h0Zm0,0"/>
  <path class="cls-1" d="m59.73,158.93c0,14.94-8.07,27.05-18.03,27.05s-18.04-12.11-18.04-27.05,8.07-27.06,18.04-27.06,18.03,12.11,18.03,27.06h0Zm0,0"/>
  <path class="cls-1" d="m62.74,240.1c0,16.6-9.42,30.06-21.04,30.06s-21.04-13.46-21.04-30.06,9.42-30.06,21.04-30.06,21.04,13.46,21.04,30.06h0Zm0,0"/>
  <path class="cls-1" d="m53.72,20.66c0,8.3-5.38,15.03-12.02,15.03s-12.02-6.73-12.02-15.03,5.38-15.03,12.02-15.03,12.02,6.73,12.02,15.03h0Zm0,0"/>
  <path class="cls-2" d="m44.7,239.99v.11c0,11.42-8.84,18.93-16.19,23.26,3.62,4.19,8.16,6.8,13.18,6.8,11.62,0,21.04-13.46,21.04-30.06,0-6.78-1.63-12.97-4.29-18l-5.11,2.69c-5.6,2.94-8.67,8.87-8.64,15.2h0Zm0,0"/>
  <path d="m47.32,301v-25.98c12.16-3.37,21.04-17.5,21.04-34.92s-8.88-31.55-21.04-34.92v-14.47c10.47-3.4,18.04-16.14,18.04-31.78s-7.57-28.38-18.04-31.78v-14.8c7.13-2.84,12.76-10.96,14.48-21.67.5-3.07-1.59-5.95-4.66-6.45-3.07-.49-5.95,1.59-6.45,4.66-1.34,8.33-5.63,13.3-9,13.3-4.44,0-9.41-7.88-9.41-18.42s4.97-18.42,9.41-18.42c2.41,0,4.39,2.28,5.35,3.64,1.79,2.53,5.3,3.13,7.84,1.34,2.54-1.8,3.14-5.31,1.34-7.84-2.49-3.52-5.55-6-8.91-7.31v-14.96c6.98-2.75,12.02-10.49,12.02-19.57,0-11.39-7.92-20.66-17.65-20.66s-17.65,9.27-17.65,20.66c0,9.09,5.04,16.82,12.02,19.57v14.96c-8.77,3.44-15.03,14.77-15.03,28.59s6.26,25.16,15.03,28.59v14.78c-10.47,3.4-18.04,16.14-18.04,31.78s7.57,28.38,18.04,31.78v14.47c-12.16,3.37-21.04,17.5-21.04,34.92s8.88,31.55,21.04,34.92v25.97c-5.67.77-11.13,2.7-16.04,5.68-2.65,1.62-3.5,5.08-1.88,7.73,1.61,2.65,5.07,3.5,7.73,1.88,4.75-2.89,10.22-4.42,15.81-4.42,16.79,0,30.45,13.66,30.45,30.45s-13.66,30.45-30.45,30.45-30.45-13.66-30.45-30.45c0-3.49.59-6.9,1.73-10.15,1.04-2.93-.5-6.14-3.43-7.18-2.93-1.04-6.14.5-7.18,3.43C.8,332.86,0,337.54,0,342.3c0,23,18.7,41.7,41.7,41.7s41.7-18.7,41.7-41.7c0-21.08-15.73-38.55-36.07-41.31h0ZM41.7,11.25c3.47,0,6.4,4.31,6.4,9.41s-2.93,9.41-6.4,9.41-6.4-4.31-6.4-9.41,2.93-9.41,6.4-9.41h0Zm-12.41,147.68c0-10.14,5.1-21.43,12.41-21.43s12.41,11.29,12.41,21.43-5.1,21.43-12.41,21.43-12.41-11.29-12.41-21.43h0Zm-3.01,81.16c0-13.25,7.06-24.44,15.42-24.44s15.42,11.19,15.42,24.44-7.06,24.43-15.42,24.43-15.42-11.19-15.42-24.43h0Zm0,0"/>
</svg>