<?xml version="1.0" encoding="UTF-8"?>
<svg id="Livello_1" data-name="Livello 1" xmlns="http://www.w3.org/2000/svg" xmlns:xlink="http://www.w3.org/1999/xlink" viewBox="0 0 132 384">
  <defs>
    <style>
      .cls-1 {
        fill: none;
      }

      .cls-2 {
        clip-path: url(#clippath);
      }

      .cls-3 {
        fill: #00cfff;
      }

      .cls-4 {
        fill: #b8f2ff;
      }

      .cls-5 {
        fill: #a6f2ff;
      }
    </style>
    <clipPath id="clippath">
      <rect class="cls-1" width="132" height="384"/>
    </clipPath>
  </defs>
  <path class="cls-3" d="m114.1,354.33V127.84l-7.71-14.34,7.71-13.03v-22.7c0-19.6-11.74-36.42-28.57-43.9-4.45-1.98-7.5-6.17-7.5-11.04v-4.53c0-5.99-4.09-11.54-10-12.5-7.54-1.22-14.04,4.56-14.04,11.86v5.18c0,4.87-3.05,9.06-7.5,11.04-16.83,7.48-28.57,24.3-28.57,43.91v276.56c-6.64,0-12.02,5.38-12.02,12.02s5.38,12.02,12.02,12.02h96.2c6.64,0,12.02-5.38,12.02-12.02s-5.38-12.02-12.02-12.02h0Zm0,0"/>
  <path class="cls-5" d="m85.53,33.86c-4.45-1.98-7.5-6.17-7.5-11.04v-4.53c0-5.77-3.76-11.2-9.41-12.39-3.17-.67-6.17-.06-8.63,1.37v15.56c0,12.14,7.44,23.06,18.95,27.84,10.24,4.25,17.12,15.29,17.12,27.5v240.1c0,9.96-8.08,18.04-18.04,18.04H17.9v18.04h96.2V77.77c0-19.6-11.75-36.42-28.57-43.9h0Zm0,0"/>
  <g class="cls-2">
    <path class="cls-4" d="m114.1,354.33h-24.05c6.64,0,12.02,5.38,12.02,12.02s-5.38,12.02-12.02,12.02h24.05c6.64,0,12.02-5.38,12.02-12.02s-5.38-12.02-12.02-12.02h0Zm0,0"/>
    <path d="m119.72,349.62V125.86c0-3.1-2.52-5.62-5.62-5.62s-5.62,2.52-5.62,5.62v222.84h-54.5c-3.11,0-5.62,2.52-5.62,5.62s2.52,5.62,5.62,5.62h60.12c3.53,0,6.4,2.87,6.4,6.4s-2.87,6.4-6.4,6.4H17.9c-3.53,0-6.4-2.87-6.4-6.4s2.87-6.4,6.4-6.4h12.02c3.11,0,5.62-2.52,5.62-5.62s-2.52-5.62-5.62-5.62h-6.4V77.77c0-16.73,9.91-31.95,25.23-38.77,6.59-2.93,10.84-9.28,10.84-16.18v-5.18c0-1.88.82-3.66,2.26-4.88,1.45-1.23,3.32-1.74,5.26-1.43,2.96.48,5.28,3.54,5.28,6.95v4.53c0,6.9,4.26,13.25,10.84,16.18,15.33,6.82,25.23,22.03,25.23,38.77v24.05c0,3.11,2.52,5.62,5.62,5.62s5.62-2.52,5.62-5.62v-24.05c0-21.17-12.52-40.43-31.91-49.04-2.57-1.14-4.16-3.4-4.16-5.9v-4.53c0-8.93-6.33-16.69-14.73-18.05-5.17-.84-10.4.6-14.35,3.96-3.95,3.36-6.22,8.27-6.22,13.45v5.18c0,2.5-1.59,4.76-4.16,5.9-19.38,8.62-31.91,27.87-31.91,49.04v271.86c-6.98,2.36-12.02,8.96-12.02,16.73,0,9.73,7.92,17.65,17.65,17.65h96.2c9.73,0,17.65-7.92,17.65-17.65,0-7.77-5.04-14.37-12.02-16.73h0Zm0,0"/>
  </g>
  <path d="m47.57,282.18c0,3.11-2.52,5.62-5.62,5.62s-5.62-2.52-5.62-5.62,2.52-5.62,5.62-5.62,5.62,2.52,5.62,5.62h0Zm0,0"/>
  <path d="m71.62,282.18c0,3.11-2.52,5.62-5.62,5.62s-5.62-2.52-5.62-5.62,2.52-5.62,5.62-5.62,5.62,2.52,5.62,5.62h0Zm0,0"/>
  <path d="m95.68,282.18c0,3.11-2.52,5.62-5.62,5.62s-5.62-2.52-5.62-5.62,2.52-5.62,5.62-5.62,5.62,2.52,5.62,5.62h0Zm0,0"/>
  <path d="m47.57,330.28c0,3.11-2.52,5.62-5.62,5.62s-5.62-2.52-5.62-5.62,2.52-5.62,5.62-5.62,5.62,2.52,5.62,5.62h0Zm0,0"/>
  <path d="m71.62,330.28c0,3.11-2.52,5.62-5.62,5.62s-5.62-2.52-5.62-5.62,2.52-5.62,5.62-5.62,5.62,2.52,5.62,5.62h0Zm0,0"/>
  <path d="m95.68,330.28c0,3.11-2.52,5.62-5.62,5.62s-5.62-2.52-5.62-5.62,2.52-5.62,5.62-5.62,5.62,2.52,5.62,5.62h0Zm0,0"/>
  <path d="m83.65,306.23c0,3.11-2.52,5.62-5.62,5.62s-5.62-2.52-5.62-5.62,2.52-5.62,5.62-5.62,5.62,2.52,5.62,5.62h0Zm0,0"/>
  <path d="m59.6,306.23c0,3.11-2.52,5.62-5.62,5.62s-5.62-2.52-5.62-5.62,2.52-5.62,5.62-5.62,5.62,2.52,5.62,5.62h0Zm0,0"/>
  <path d="m47.57,233.97c0,3.11-2.52,5.62-5.62,5.62s-5.62-2.52-5.62-5.62,2.52-5.63,5.62-5.63,5.62,2.52,5.62,5.63h0Zm0,0"/>
  <path d="m71.62,233.97c0,3.11-2.52,5.62-5.62,5.62s-5.62-2.52-5.62-5.62,2.52-5.63,5.62-5.63,5.62,2.52,5.62,5.63h0Zm0,0"/>
  <path d="m95.68,233.97c0,3.11-2.52,5.62-5.62,5.62s-5.62-2.52-5.62-5.62,2.52-5.63,5.62-5.63,5.62,2.52,5.62,5.63h0Zm0,0"/>
  <path d="m83.65,258.02c0,3.11-2.52,5.62-5.62,5.62s-5.62-2.52-5.62-5.62,2.52-5.62,5.62-5.62,5.62,2.52,5.62,5.62h0Zm0,0"/>
  <path d="m59.6,258.02c0,3.11-2.52,5.62-5.62,5.62s-5.62-2.52-5.62-5.62,2.52-5.62,5.62-5.62,5.62,2.52,5.62,5.62h0Zm0,0"/>
  <path d="m47.57,185.98c0,3.11-2.52,5.62-5.62,5.62s-5.62-2.52-5.62-5.62,2.52-5.62,5.62-5.62,5.62,2.52,5.62,5.62h0Zm0,0"/>
  <path d="m71.62,185.98c0,3.11-2.52,5.62-5.62,5.62s-5.62-2.52-5.62-5.62,2.52-5.62,5.62-5.62,5.62,2.52,5.62,5.62h0Zm0,0"/>
  <path d="m95.68,185.98c0,3.11-2.52,5.62-5.62,5.62s-5.62-2.52-5.62-5.62,2.52-5.62,5.62-5.62,5.62,2.52,5.62,5.62h0Zm0,0"/>
  <path d="m83.65,210.04c0,3.11-2.52,5.62-5.62,5.62s-5.62-2.52-5.62-5.62,2.52-5.62,5.62-5.62,5.62,2.52,5.62,5.62h0Zm0,0"/>
  <path d="m59.6,210.04c0,3.11-2.52,5.62-5.62,5.62s-5.62-2.52-5.62-5.62,2.52-5.62,5.62-5.62,5.62,2.52,5.62,5.62h0Zm0,0"/>
  <path d="m47.57,137.77c0,3.11-2.52,5.62-5.62,5.62s-5.62-2.52-5.62-5.62,2.52-5.62,5.62-5.62,5.62,2.52,5.62,5.62h0Zm0,0"/>
  <path d="m71.62,137.77c0,3.11-2.52,5.62-5.62,5.62s-5.62-2.52-5.62-5.62,2.52-5.62,5.62-5.62,5.62,2.52,5.62,5.62h0Zm0,0"/>
  <path d="m95.68,137.77c0,3.11-2.52,5.62-5.62,5.62s-5.62-2.52-5.62-5.62,2.52-5.62,5.62-5.62,5.62,2.52,5.62,5.62h0Zm0,0"/>
  <path d="m83.65,161.82c0,3.11-2.52,5.62-5.62,5.62s-5.62-2.51-5.62-5.62,2.52-5.62,5.62-5.62,5.62,2.52,5.62,5.62h0Zm0,0"/>
  <path d="m59.6,161.82c0,3.11-2.52,5.62-5.62,5.62s-5.62-2.51-5.62-5.62,2.52-5.62,5.62-5.62,5.62,2.52,5.62,5.62h0Zm0,0"/>
  <path d="m47.57,89.79c0,3.11-2.52,5.62-5.62,5.62s-5.62-2.52-5.62-5.62,2.52-5.63,5.62-5.63,5.62,2.52,5.62,5.63h0Zm0,0"/>
  <path d="m71.62,89.79c0,3.11-2.52,5.62-5.62,5.62s-5.62-2.52-5.62-5.62,2.52-5.63,5.62-5.63,5.62,2.52,5.62,5.63h0Zm0,0"/>
  <path d="m95.68,89.79c0,3.11-2.52,5.62-5.62,5.62s-5.62-2.52-5.62-5.62,2.52-5.63,5.62-5.63,5.62,2.52,5.62,5.63h0Zm0,0"/>
  <path d="m83.65,113.84c0,3.11-2.52,5.62-5.62,5.62s-5.62-2.52-5.62-5.62,2.52-5.62,5.62-5.62,5.62,2.52,5.62,5.62h0Zm0,0"/>
  <path d="m59.6,113.84c0,3.11-2.52,5.62-5.62,5.62s-5.62-2.52-5.62-5.62,2.52-5.62,5.62-5.62,5.62,2.52,5.62,5.62h0Zm0,0"/>
</svg>