<?xml version="1.0" encoding="UTF-8"?>
<svg id="Livello_1" data-name="Livello 1" xmlns="http://www.w3.org/2000/svg" xmlns:xlink="http://www.w3.org/1999/xlink" viewBox="0 0 384 348">
  <defs>
    <style>
      .cls-1 {
        fill: none;
      }

      .cls-2 {
        clip-path: url(#clippath);
      }

      .cls-3 {
        fill: #bc7ebb;
      }

      .cls-4 {
        fill: #9b5c9b;
      }

      .cls-5 {
        fill: #9b5c9a;
      }

      .cls-6 {
        fill: #615260;
      }

      .cls-7 {
        fill: #4e3d4d;
      }
    </style>
    <clipPath id="clippath">
      <rect class="cls-1" x="0" width="384" height="348"/>
    </clipPath>
  </defs>
  <path class="cls-6" d="m330.28,5.66c6.64,0,12.02,5.38,12.02,12.02v126.25h-24.05V17.68c0-6.64,5.39-12.02,12.03-12.02h0Zm0,0"/>
  <path class="cls-7" d="m320.76,111.9c6.81-3.79,14.24-5.5,21.55-5.34v37.38h-24.05v-30.66l2.5-1.39Zm0,0"/>
  <path class="cls-6" d="m53.72,5.66c-6.64,0-12.02,5.38-12.02,12.02v126.25h24.05V17.68c0-6.64-5.39-12.02-12.03-12.02h0Zm0,0"/>
  <path class="cls-7" d="m63.24,111.9c-6.81-3.79-14.24-5.5-21.55-5.34v37.38h24.05v-30.66l-2.5-1.39Zm0,0"/>
  <path class="cls-3" d="m320.04,132.93l-116.36,64.65c-7.26,4.03-16.09,4.03-23.36,0l-117.02-65.01-39.64,71.5v115.15c0,5.87,4.27,10.88,10.05,11.84,5.27.88,8.96,2.47,13.25,4.3,7.64,3.27,16.29,6.98,32.79,6.98s25.15-3.71,32.78-6.98c6.57-2.81,11.76-5.04,23.31-5.04s16.75,2.23,23.32,5.04c7.64,3.27,16.3,6.98,32.79,6.98s25.15-3.71,32.79-6.98c6.57-2.81,11.75-5.04,23.31-5.04s16.76,2.23,23.34,5.04c7.64,3.27,16.31,6.98,32.81,6.98s25.16-3.71,32.8-6.98c4.3-1.84,8-3.43,13.28-4.31,5.79-.97,10.06-5.98,10.06-11.84v-115.15l-40.3-71.14Zm0,0"/>
  <path class="cls-4" d="m24.34,133.23c-12.88,15.89-20.09,36.53-18.5,58.93,2.95,41.4,37.02,75.22,78.44,77.86,46.32,2.95,85.18-31.59,89.29-76.2L54.48,127.66c-10.08-5.6-22.89-3.39-30.14,5.57h0Zm0,0"/>
  <path class="cls-5" d="m359.66,133.23c-7.26-8.96-20.06-11.17-30.14-5.57l-119.09,66.16c4.1,44.61,42.97,79.15,89.28,76.2,15.68-1,30.31-6.48,42.59-15.14v53.28c-5.98,1.38-10.55,3.29-14.77,5.1-6.57,2.81-11.77,5.04-23.33,5.04s-16.76-2.23-23.34-5.04c-7.64-3.27-16.3-6.98-32.81-6.98s-25.15,3.71-32.79,6.98c-6.57,2.81-11.75,5.04-23.31,5.04s-16.75-2.23-23.32-5.04c-7.64-3.27-16.3-6.98-32.8-6.98s-25.15,3.71-32.78,6.98c-6.57,2.81-11.76,5.04-23.31,5.04s-16.74-2.23-23.31-5.04c-7.63-3.27-16.29-6.98-32.78-6.98v12.94c0,5.87,4.27,10.88,10.05,11.85,5.27.88,8.96,2.47,13.25,4.3,7.64,3.27,16.29,6.98,32.79,6.98s25.15-3.71,32.78-6.98c6.57-2.81,11.76-5.04,23.31-5.04s16.75,2.23,23.32,5.04c7.64,3.27,16.3,6.98,32.79,6.98s25.15-3.71,32.79-6.98c6.57-2.81,11.75-5.04,23.31-5.04s16.76,2.23,23.34,5.04c7.64,3.27,16.31,6.98,32.81,6.98s25.16-3.71,32.8-6.98c4.3-1.84,8-3.43,13.28-4.31,5.79-.97,10.06-5.97,10.06-11.84v-81.53c10.08-12.82,16.61-28.5,17.82-45.52,1.59-22.4-5.62-43.04-18.5-58.93h0Zm0,0"/>
  <g class="cls-2">
    <path class="cls-7" d="m342.31,333.21c2.41-.89,4.93-1.66,7.98-2.16,5.79-.97,10.06-5.97,10.06-11.84v-12.94c-7.4,0-13.17.77-18.04,1.89v25.06Zm0,0"/>
    <path d="m364.04,129.68c-4.21-5.2-9.93-8.6-16.11-10V17.68c0-9.73-7.92-17.65-17.65-17.65s-17.65,7.92-17.65,17.65v112.93l-104.93,58.3-6.75,3.75c-5.6,3.11-12.29,3.11-17.89,0l-6.75-3.75-104.93-58.3V17.68C71.37,7.95,63.45.04,53.72.04s-17.65,7.92-17.65,17.65v102c-6.18,1.4-11.89,4.8-16.1,10C5.61,147.4-1.39,169.73.23,192.56c1.21,17.07,7.45,33.41,17.8,47.16v79.49c0,8.65,6.2,15.96,14.75,17.39,4.59.77,7.84,2.16,11.96,3.92,7.73,3.32,17.35,7.44,35,7.44s27.28-4.12,35.02-7.45c6.43-2.76,10.69-4.58,21.08-4.58s14.66,1.82,21.11,4.58c7.74,3.32,17.35,7.44,35.01,7.44s27.28-4.12,35.02-7.45c6.43-2.76,10.69-4.58,21.08-4.58s14.68,1.82,21.13,4.59c7.73,3.31,17.36,7.43,35.01,7.43s27.27-4.12,35.02-7.44c4.12-1.77,7.37-3.16,11.99-3.93,8.55-1.43,14.75-8.74,14.75-17.39v-79.49c10.36-13.74,16.59-30.09,17.8-47.16,1.62-22.83-5.38-45.16-19.73-62.88h0Zm-15.48,60.37c-1.89,26.55-24.17,48.66-50.74,50.36-23.07,1.52-43.84-10.98-53.13-31.51l95.01-52.78c6.59,9.96,9.73,21.84,8.87,33.94h0Zm-129.12,20c-1.36-4.26-2.37-8.65-3-13.14l115.8-64.34c7.25-4.03,16.07-2.82,21.71,2.74l-134.52,74.74ZM323.88,17.68c0-3.53,2.87-6.4,6.4-6.4s6.4,2.87,6.4,6.4v101.63c-3.39.54-6.74,1.68-9.89,3.43l-2.91,1.62V17.68Zm-159.24,192.1L30.24,135.11c3.37-3.22,7.82-4.92,12.39-4.92,3.09,0,6.23.78,9.13,2.38l115.8,64.34c-.61,4.4-1.6,8.69-2.91,12.87h0ZM53.72,11.29c3.53,0,6.4,2.87,6.4,6.4v106.68l-2.91-1.62c-3.16-1.75-6.51-2.89-9.9-3.43V17.68c0-3.53,2.87-6.4,6.4-6.4h0Zm-30.34,132.89l116.05,64.47c-8.74,19.54-27.83,31.88-49.46,31.88-1.26,0-2.53-.04-3.8-.13-26.56-1.68-48.84-23.8-50.73-50.35-.43-6.08.13-12.12,1.68-17.95.8-3-1-6.08-4-6.88-3-.8-6.09.99-6.88,4-1.86,7.03-2.55,14.3-2.03,21.62,2.28,32.05,29.18,58.74,61.22,60.78,1.52.1,3.04.15,4.55.15,13.05,0,25.54-3.75,36.36-10.97,9.9-6.6,17.87-15.93,22.92-26.7l11.18,6.21c-4.61,9.51-11.16,18.07-19.38,25.17-15.64,13.52-35.68,20.23-56.43,18.91-18.68-1.19-36.45-9.28-50.05-22.77-13.6-13.5-21.82-31.21-23.15-49.87-1.2-16.91,3-33.5,11.93-47.59h0Zm325.98,181.33c-5.95.99-10.14,2.79-14.58,4.69-7.49,3.2-15.24,6.52-30.58,6.52s-23.09-3.32-30.59-6.52c-6.88-2.95-12.82-5.5-25.55-5.5s-18.64,2.54-25.53,5.49c-7.48,3.21-15.23,6.53-30.57,6.53s-23.09-3.32-30.6-6.54c-6.88-2.95-12.82-5.48-25.52-5.48s-18.64,2.54-25.52,5.49c-7.49,3.21-15.23,6.53-30.57,6.53s-23.08-3.32-30.59-6.54c-4.42-1.89-8.59-3.68-14.51-4.67-3.1-.52-5.36-3.17-5.36-6.3v-7.15c11.73.7,18.43,3.57,24.95,6.38,6.87,2.94,12.81,5.48,25.51,5.48s18.64-2.54,25.53-5.49c7.49-3.21,15.23-6.53,30.57-6.53s23.09,3.32,30.6,6.54c6.88,2.95,12.82,5.48,25.52,5.48s18.64-2.54,25.53-5.49c7.48-3.21,15.23-6.53,30.57-6.53s23.09,3.32,30.59,6.53c6.88,2.95,12.82,5.5,25.55,5.5,1.21,0,2.38-.02,3.5-.07,3.1-.13,5.52-2.75,5.39-5.85-.13-3.11-2.75-5.53-5.85-5.39-.96.04-1.98.06-3.04.06-10.42,0-14.68-1.83-21.13-4.59-7.73-3.31-17.36-7.43-35.01-7.43s-27.27,4.12-35.01,7.45c-6.44,2.76-10.69,4.58-21.09,4.58s-14.65-1.82-21.11-4.58c-7.73-3.32-17.35-7.44-35.02-7.44s-27.27,4.12-35.01,7.45c-6.44,2.76-10.69,4.58-21.09,4.58s-14.64-1.82-21.09-4.58c-6.86-2.95-15.22-6.53-29.37-7.29v-48.69c15.16,13.92,34.43,22.24,54.64,23.53,1.96.12,3.91.19,5.86.19,21.61,0,42.24-7.63,58.64-21.81,15.53-13.43,25.85-31.41,29.57-51.31,4.4,2.36,9.2,3.55,14,3.55s9.59-1.19,14-3.55c3.73,19.9,14.04,37.88,29.57,51.31,16.41,14.18,37.04,21.81,58.65,21.81,1.94,0,3.9-.06,5.86-.19,20.21-1.29,39.48-9.61,54.64-23.53v48.68c-11.59.61-19.21,3.09-25.7,5.73-2.88,1.18-4.25,4.46-3.08,7.34.89,2.18,2.99,3.5,5.21,3.5.71,0,1.43-.14,2.12-.42,5.43-2.21,11.8-4.29,21.44-4.88v7.14c0,3.13-2.25,5.78-5.36,6.3h0Zm23.19-133.74c-1.33,18.66-9.55,36.38-23.14,49.87-13.6,13.5-31.37,21.58-50.05,22.77-20.75,1.32-40.79-5.39-56.43-18.91-8.15-7.04-14.65-15.52-19.26-24.92l11.18-6.21c5.06,10.66,12.98,19.9,22.8,26.45,10.82,7.22,23.31,10.97,36.36,10.97,1.51,0,3.03-.05,4.55-.15,32.06-2.04,58.96-28.73,61.24-60.78,1.02-14.3-2.6-28.34-10.24-40.21l11.22-6.24c8.83,14.04,12.98,30.54,11.78,47.36h0Zm0,0"/>
  </g>
</svg>