<?xml version="1.0" encoding="UTF-8"?>
<svg id="Livello_1" data-name="Livello 1" xmlns="http://www.w3.org/2000/svg" xmlns:xlink="http://www.w3.org/1999/xlink" viewBox="0 0 312 384">
  <defs>
    <style>
      .cls-1 {
        fill: none;
      }

      .cls-2 {
        clip-path: url(#clippath);
      }

      .cls-3 {
        fill: #615260;
      }

      .cls-4 {
        fill: #4e3d4d;
      }
    </style>
    <clipPath id="clippath">
      <rect class="cls-1" width="312" height="384"/>
    </clipPath>
  </defs>
  <path class="cls-3" d="m59.93,246.29c-4.4,0-8.46-1.27-12.01-3.33v123.41c0,6.63,5.38,12.01,12.01,12.01s12.01-5.38,12.01-12.01v-123.41c-3.54,2.06-7.61,3.33-12.01,3.33h0Zm0,0"/>
  <path class="cls-4" d="m59.93,246.29c-4.4,0-8.46-1.27-12.01-3.33v27.35h24.01v-27.35c-3.54,2.06-7.61,3.33-12.01,3.33h0Zm0,0"/>
  <path class="cls-3" d="m252.07,246.29c-4.4,0-8.46-1.27-12.01-3.33v123.41c0,6.63,5.38,12.01,12.01,12.01s12.01-5.38,12.01-12.01v-123.41c-3.55,2.06-7.61,3.33-12.01,3.33h0Zm0,0"/>
  <path class="cls-4" d="m252.07,246.29c-4.4,0-8.46-1.27-12.01-3.33v27.35h24.02v-27.35c-3.55,2.06-7.61,3.33-12.01,3.33h0Zm0,0"/>
  <path class="cls-3" d="m41.92,206.1v-65.22c-3.54,2.06-7.61,3.33-12.01,3.33s-8.46-1.27-12.01-3.33v65.22c0,11.63,6.94,22.02,17.69,26.47,1.06.44,2.16.66,3.25.96-1.8-3.37-2.93-7.17-2.93-11.26,0-6.09,2.34-11.58,6.07-15.81,0-.13-.06-.22-.06-.36h0Zm0,0"/>
  <path class="cls-4" d="m282.09,144.21c-4.4,0-8.47-1.27-12.01-3.33v65.22c0,.14-.05.23-.06.36,3.73,4.23,6.07,9.72,6.07,15.81,0,4.09-1.12,7.89-2.92,11.26,1.09-.3,2.18-.51,3.25-.96,10.75-4.45,17.69-14.84,17.69-26.47v-65.22c-3.54,2.06-7.61,3.33-12.01,3.33h0Zm0,0"/>
  <path class="cls-3" d="m132.87,126.34l-72,72c9.07.35,16.78,5.71,20.56,13.4l68.43-68.43c-8.3-2.21-14.78-8.69-16.98-16.98h0Zm0,0"/>
  <path class="cls-3" d="m149.85,97.07L66.82,14.04c-8.22-8.22-20.48-10.66-31.22-6.21-10.75,4.45-17.69,14.84-17.69,26.47v65.21c3.54-2.06,7.61-3.33,12.01-3.33s8.46,1.27,12.01,3.33V34.3c0-2.7,1.79-3.85,2.86-4.28,1.07-.45,3.14-.91,5.06,1l83.04,83.04c2.2-8.3,8.68-14.78,16.98-16.98h0Zm0,0"/>
  <path class="cls-4" d="m135.32,132.21c-2.07-3.54-3.33-7.61-3.33-12.01s1.27-8.46,3.33-12.01H50.6c2.06,3.54,3.33,7.61,3.33,12.01s-1.27,8.46-3.33,12.01h84.72Zm0,0"/>
  <g class="cls-2">
    <path class="cls-4" d="m276.41,7.83c-10.74-4.46-23-2.01-31.22,6.21l-83.04,83.04c10.27,2.73,17.87,12,17.87,23.12s-7.61,20.39-17.87,23.12l68.43,68.43c3.78-7.7,11.49-13.05,20.56-13.41l-66.14-66.14h76.41c-2.07-3.55-3.33-7.61-3.33-12.01s1.27-8.46,3.33-12.01h-76.41l77.18-77.18c1.91-1.91,3.98-1.45,5.05-1,1.07.44,2.86,1.59,2.86,4.29v65.21c3.54-2.06,7.61-3.33,12.01-3.33s8.46,1.27,12.01,3.33V34.3c0-11.63-6.94-22.02-17.69-26.47h0Zm0,0"/>
    <path d="m311.93,119.85c0-9.75-4.73-18.43-12.02-23.84v-61.32c0-14.07-8.4-26.64-21.41-32.03C274.25.9,269.77,0,265.2,0c-9.23,0-17.93,3.61-24.49,10.17l-80.33,80.33c-1.43-.21-2.89-.33-4.39-.33s-2.96.11-4.39.33L71.29,10.18C61.34.22,46.5-2.73,33.5,2.66c-13,5.39-21.4,17.96-21.4,32.03v61.32C4.8,101.43.07,110.09.07,119.85s4.74,18.42,12.02,23.84v61.32c0,14.07,8.4,26.64,21.4,32.03.3.12.61.23.91.34,2.01,3.32,4.65,6.21,7.75,8.51v120.46c0,9.73,7.92,17.65,17.65,17.65s17.65-7.92,17.65-17.65v-120.46c7.29-5.41,12.03-14.08,12.03-23.84,0-3.23-.53-6.34-1.48-9.25l63.61-63.62c1.43.22,2.9.33,4.39.33s2.96-.11,4.39-.33l63.61,63.62c-.96,2.91-1.48,6.02-1.48,9.25,0,9.75,4.73,18.42,12.02,23.84v120.46c0,9.73,7.92,17.65,17.65,17.65s17.65-7.92,17.65-17.65v-120.25c0-.07,0-.13,0-.2,3.1-2.3,5.74-5.19,7.75-8.5.31-.12.62-.23.92-.36,13-5.39,21.4-17.96,21.4-32.03v-61.32c7.29-5.42,12.02-14.08,12.02-23.84h0Zm-63.26-101.72c4.43-4.43,10.3-6.88,16.53-6.88,3.09,0,6.11.61,8.99,1.8,8.79,3.64,14.46,12.13,14.46,21.64v56.19c-2.06-.46-4.2-.7-6.4-.7-9.76,0-18.43,4.73-23.84,12.03h-59.81l66-66v35.99c0,3.11,2.52,5.62,5.62,5.62s5.62-2.52,5.62-5.62v-37.51c0-4.44-2.45-8.11-6.57-9.82-4.09-1.68-8.41-.83-11.57,2.3l-76.72,76.72c-2.32-3.63-5.42-6.72-9.05-9.05L248.67,18.13Zm15.93,176.98c-3.4-1.57-7.14-2.52-11.08-2.7l-54.92-54.92h59.81c1.75,2.35,3.84,4.44,6.19,6.19v51.43Zm-11.32-68.86h-65.93l-2.01-2.02c.21-1.43.32-2.89.32-4.38s-.11-2.96-.32-4.39l2.01-2.01h65.93c-.46,2.06-.7,4.2-.7,6.4s.25,4.34.7,6.4h0ZM23.34,34.69c0-9.51,5.68-18,14.46-21.64,8.78-3.64,18.8-1.65,25.52,5.08l76.72,76.72c-3.63,2.33-6.72,5.42-9.05,9.05L54.27,27.17c-2.06-2.06-4.62-3.14-7.39-3.14-1.41,0-2.82.29-4.18.85-4.1,1.7-6.56,5.37-6.56,9.82v56.19c-2.06-.46-4.2-.7-6.4-.7s-4.34.25-6.4.7v-56.19Zm35.13,157.73c-3.94.18-7.68,1.12-11.08,2.7v-51.43c2.35-1.75,4.44-3.83,6.19-6.19h39.18c3.11,0,5.62-2.52,5.62-5.62s-2.52-5.62-5.62-5.62h-34.05c.46-2.06.7-4.2.7-6.4s-.25-4.34-.7-6.4h65.93l2.01,2.02c-.21,1.43-.32,2.89-.32,4.39s.11,2.95.32,4.39l-68.18,68.18Zm-11.08-96.41v-59.81l66,66h-59.81c-1.75-2.36-3.84-4.44-6.19-6.19h0Zm-17.65,5.41c10.16,0,18.43,8.27,18.43,18.43s-8.27,18.42-18.43,18.42-18.42-8.26-18.42-18.42,8.27-18.43,18.42-18.43h0Zm-6.4,47.39c2.06.46,4.2.7,6.4.7s4.34-.25,6.4-.7v55.36c-3.67,4.84-5.88,10.83-6,17.33-4.27-4.3-6.8-10.17-6.8-16.5v-56.19Zm42.86,193.48c0,3.53-2.87,6.4-6.4,6.4s-6.4-2.87-6.4-6.4v-66.52h12.8v66.52Zm-6.4,30.45c-3.53,0-6.4-2.87-6.4-6.4v-7.61c1.99.77,4.14,1.2,6.4,1.2s4.41-.43,6.4-1.2v7.61c0,3.53-2.87,6.4-6.4,6.4h0Zm6.4-108.22h-12.8v-13.5c2.06.46,4.2.7,6.4.7s4.34-.25,6.4-.7v13.5Zm-6.4-24.05c-10.16,0-18.42-8.27-18.42-18.42s8.26-18.43,18.42-18.43,18.42,8.26,18.42,18.43-8.26,18.42-18.42,18.42h0Zm22.43-37.82c-2.84-3.28-6.38-5.93-10.38-7.71l59.15-59.15c2.32,3.63,5.42,6.73,9.05,9.05l-57.81,57.81Zm55.34-82.81c0-10.16,8.26-18.43,18.42-18.43s18.42,8.27,18.42,18.43-8.26,18.42-18.42,18.42-18.42-8.26-18.42-18.42h0Zm34.38,25c3.63-2.33,6.72-5.42,9.05-9.05l59.14,59.15c-4.01,1.79-7.55,4.44-10.38,7.71l-57.81-57.81Zm80.24,58.78c10.16,0,18.42,8.26,18.42,18.43s-8.26,18.42-18.42,18.42-18.42-8.27-18.42-18.42,8.26-18.43,18.42-18.43h0Zm6.4,138.67c0,3.53-2.87,6.4-6.4,6.4s-6.4-2.87-6.4-6.4v-66.52h12.8v66.52Zm-6.4,30.45c-3.53,0-6.4-2.87-6.4-6.4v-7.61c1.98.77,4.14,1.2,6.4,1.2s4.41-.43,6.4-1.2v7.61c0,3.53-2.87,6.4-6.4,6.4h0Zm6.4-108.22h-12.8v-13.5c2.06.46,4.2.7,6.4.7s4.34-.25,6.4-.7v13.5Zm30.06-59.52c0,6.33-2.53,12.2-6.8,16.5-.12-6.5-2.33-12.49-6-17.33v-55.36c2.06.46,4.2.7,6.4.7s4.34-.25,6.4-.7v56.19Zm-6.4-66.74c-10.16,0-18.43-8.26-18.43-18.42s8.27-18.43,18.43-18.43,18.42,8.27,18.42,18.43-8.27,18.42-18.42,18.42h0Zm0,0"/>
  </g>
</svg>