<?xml version="1.0" encoding="UTF-8"?>
<svg id="Livello_1" data-name="Livello 1" xmlns="http://www.w3.org/2000/svg" viewBox="0 0 384 221.67">
  <defs>
    <style>
      .cls-1 {
        fill: #27afe9;
      }

      .cls-2 {
        fill: #3bc4f4;
      }
    </style>
  </defs>
  <path class="cls-1" d="m366.35,5.62H17.65c-6.64,0-12.02,5.38-12.02,12.02v11.91c0,7.79,3.02,15.27,8.43,20.88l151.04,156.43c5.66,5.87,13.47,9.18,21.62,9.18h10.55c8.16,0,15.96-3.31,21.62-9.18L369.94,50.43c5.41-5.61,8.43-13.09,8.43-20.88v-11.91c0-6.64-5.38-12.02-12.02-12.02h0Zm3.92,24.05l-163.94,121.64c-8.51,6.31-20.15,6.31-28.66,0L13.73,29.67l3.92-12.02h348.7l3.92,12.02Zm0,0"/>
  <path class="cls-2" d="m378.38,17.62c0-6.62-5.37-12-12-12H17.62c-6.62,0-12,5.37-12,12,0,3.8,1.8,7.38,4.85,9.64l3.26,2.41h46c63.09,0,114.23,51.14,114.23,114.23v4.65l3.71,2.75c8.51,6.31,20.15,6.31,28.66,0l3.71-2.75v-4.65c0-63.09,51.14-114.23,114.23-114.23h46l-18.9,14.02-145.45,150.65c-2.25,2.33-5.4,3.67-8.65,3.67h-11.28c-7.78,0-14.48,4.94-16.97,12.17,1.66,1.21,3.46,2.19,5.31,3.04,0,.02-.02.04-.02.07.87.39,1.75.73,2.65,1.05.38.13.76.24,1.14.36,1.05.32,2.11.59,3.19.79.43.08.85.15,1.28.21,1.37.2,2.75.34,4.15.34h10.55c6.11,0,12.04-1.86,17-5.27,1.65-1.14,3.2-2.45,4.62-3.91L369.94,50.43c1.35-1.4,2.56-2.92,3.6-4.53,2.09-3.22,3.54-6.82,4.28-10.59.37-1.89.56-3.82.56-5.76v-11.91h0s0-.01,0-.03h0Zm0,0"/>
  <path d="m384,17.62c0-9.71-7.91-17.62-17.62-17.62H17.62C7.91,0,0,7.91,0,17.62v11.93c0,9.29,3.55,18.1,10.01,24.79l151.04,156.43c6.69,6.93,16.04,10.9,25.67,10.9h10.55c9.63,0,18.99-3.97,25.67-10.9L373.98,54.34c6.46-6.69,10.02-15.49,10.02-24.79v-11.91h0v-.03h0Zm-18.11,28.91l-151.04,156.43c-4.58,4.74-10.99,7.46-17.58,7.46h-10.55c-6.59,0-13-2.72-17.58-7.46L18.1,46.53c-3.05-3.16-5.15-7.01-6.16-11.18l162.38,120.47c5.28,3.92,11.48,5.89,17.68,5.89s12.39-1.96,17.68-5.89l21.74-16.13c2.5-1.85,3.02-5.37,1.17-7.87-1.85-2.5-5.37-3.01-7.87-1.17l-8.85,6.57c3.47-56.79,50.75-101.93,108.4-101.93h28.98l-109.7,81.39c-2.5,1.85-3.02,5.38-1.17,7.87,1.85,2.49,5.37,3.01,7.87,1.16l121.8-90.37c-1.01,4.17-3.12,8.02-6.16,11.18h0Zm4.28-23.79l-1.76,1.3h-44.15c-66.09,0-119.86,53.77-119.86,119.85v1.83l-1.43,1.06c-6.57,4.88-15.39,4.88-21.95,0l-1.43-1.06v-1.83c0-66.09-53.77-119.85-119.86-119.85h-6.01c-3.11,0-5.62,2.52-5.62,5.62s2.51,5.62,5.62,5.62h6.01c57.64,0,104.93,45.14,108.39,101.93L13.82,22.74c-1.61-1.2-2.57-3.1-2.57-5.11,0-3.52,2.87-6.39,6.4-6.39h348.7c3.52,0,6.39,2.86,6.4,6.39,0,2-.96,3.91-2.57,5.11h0Zm0,0"/>
</svg>