<?xml version="1.0" encoding="UTF-8"?>
<svg id="Livello_1" data-name="Livello 1" xmlns="http://www.w3.org/2000/svg" viewBox="0 0 384 384">
  <defs>
    <style>
      .cls-1 {
        fill: #f9b2c1;
      }

      .cls-2 {
        fill: #fff;
      }

      .cls-3 {
        fill: #fff0f3;
      }

      .cls-4 {
        fill: #f208d1;
      }

      .cls-5 {
        fill: #ff00f9;
      }

      .cls-6 {
        fill: #a04789;
      }

      .cls-7 {
        fill: #c909a5;
      }

      .cls-8 {
        fill: #dbdbdb;
      }

      .cls-9 {
        fill: #c870ad;
      }

      .cls-10 {
        fill: #dfbdf0;
      }

      .cls-11 {
        fill: #2097bc;
      }

      .cls-12 {
        fill: #28afe7;
      }
    </style>
  </defs>
  <path class="cls-10" d="m378.38,192c0,102.93-83.44,186.38-186.38,186.38S5.62,294.93,5.62,192,89.07,5.62,192,5.62s186.38,83.44,186.38,186.38h0Zm0,0"/>
  <path class="cls-12" d="m192,192h186.38c0-51.47-20.86-98.06-54.59-131.79l-131.79,131.79Zm0,0"/>
  <path class="cls-12" d="m5.62,192c0,51.46,20.86,98.06,54.59,131.78l131.79-131.78H5.62Zm0,0"/>
  <path class="cls-5" d="m192,192H5.62c0-51.47,20.86-98.06,54.59-131.79l131.79,131.79Zm0,0"/>
  <path class="cls-4" d="m378.38,192c0,51.46-20.86,98.06-54.59,131.78l-131.79-131.78h186.38Zm0,0"/>
  <path class="cls-2" d="m192,192v186.38c51.46,0,98.06-20.86,131.79-54.59l-131.79-131.78Zm0,0"/>
  <path class="cls-2" d="m192,5.62c-51.47,0-98.06,20.86-131.79,54.59l131.79,131.79V5.62Zm0,0"/>
  <path class="cls-9" d="m192,192V5.62c51.46,0,98.06,20.86,131.79,54.59l-131.79,131.79Zm0,0"/>
  <path class="cls-9" d="m192,378.38c-51.47,0-98.06-20.86-131.79-54.59l131.79-131.78v186.38Zm0,0"/>
  <path class="cls-3" d="m197.27,279.61c18.61-9,80.54-43,86.75-99.76,3.24-29.55-16.8-57.61-46.46-59.62-19.01-1.29-35.93,7.99-45.56,22.51-9.63-14.52-26.55-23.8-45.56-22.51-29.66,2.01-49.7,30.07-46.46,59.62,6.22,56.76,68.14,90.76,86.75,99.76,3.34,1.61,7.19,1.61,10.53,0h0Zm0,0"/>
  <path class="cls-2" d="m204.02,192c0,6.64-5.38,12.02-12.02,12.02s-12.02-5.38-12.02-12.02,5.38-12.02,12.02-12.02,12.02,5.38,12.02,12.02h0Zm0,0"/>
  <path class="cls-1" d="m237.56,120.23c-2.03-.14-4.01-.1-5.99,0-.4,8.68,4.93,16.64,13.42,19.89,4.85,1.85,9.25,5.03,12.73,9.19,6.42,7.66,9.46,18.09,8.37,28.6-5.54,53.02-76.47,85.57-90.63,91.55l-4.22,1.79c6.34,3.75,11.8,6.57,15.5,8.36,3.34,1.61,7.19,1.61,10.53,0,18.61-9,80.54-43,86.75-99.76,3.24-29.55-16.8-57.61-46.46-59.62h0Zm0,0"/>
  <path class="cls-7" d="m323.79,323.79c33.73-33.73,54.59-80.32,54.59-131.78h-18.04c0,44.89-17.53,87.14-49.36,118.98l12.81,12.81Zm0,0"/>
  <path class="cls-11" d="m323.79,60.21l-12.75,12.75c30.46,30.46,49.3,72.55,49.3,119.04h18.04c0-51.47-20.86-98.06-54.59-131.79h0Zm0,0"/>
  <path class="cls-6" d="m60.21,323.79c33.73,33.73,80.32,54.59,131.79,54.59v-18.04c-44.89,0-87.15-17.53-118.98-49.36l-12.81,12.81Zm0,0"/>
  <path class="cls-8" d="m323.79,323.79l-12.75-12.75c-30.47,30.46-72.55,49.3-119.04,49.3v18.04c51.46,0,98.06-20.86,131.79-54.59h0Zm0,0"/>
  <path d="m327.77,56.23C291.5,19.97,243.29,0,192,0S92.5,19.97,56.23,56.23C19.97,92.5,0,140.71,0,192s19.97,99.5,56.23,135.77c36.27,36.26,84.48,56.23,135.77,56.23s99.5-19.97,135.77-56.23c36.26-36.27,56.23-84.48,56.23-135.77s-19.97-99.5-56.23-135.77h0Zm-4.05,259.53l-55.6-55.6c-2.2-2.2-5.76-2.2-7.95,0s-2.2,5.76,0,7.95l55.6,55.6c-32.28,30.38-73.84,47.59-118.14,48.94v-86.98c7.44-3.46,25.71-12.7,44.18-27.66,22.45-18.2,37.38-38.72,44.16-60.39h86.69c-1.35,44.3-18.56,85.86-48.94,118.14h0ZM60.28,68.23l43.57,43.57c1.1,1.1,2.54,1.65,3.98,1.65s2.88-.55,3.98-1.65c2.19-2.2,2.19-5.76,0-7.96l-43.57-43.57C100.51,29.91,142.07,12.69,186.38,11.34v116.64c-10.04-8.61-22.88-13.5-36.43-13.5-30.93,0-56.09,25.16-56.09,56.09,0,5.31.48,10.58,1.42,15.8H11.34c1.35-44.3,18.56-85.86,48.94-118.14h0Zm218.62,102.34c0,28.38-14.79,54.8-43.96,78.52-18.24,14.83-36.74,23.92-42.93,26.77-8.94-4.12-43.56-21.33-66.31-50.29l53.04-21.97c3.24,3.69,7.99,6.03,13.27,6.03,9.73,0,17.65-7.92,17.65-17.65,0-.4-.01-.78-.04-1.17l68.54-28.39c.49,2.64.75,5.36.75,8.14h0Zm-80.5,21.42c0,3.53-2.87,6.4-6.4,6.4s-6.4-2.87-6.4-6.4,2.87-6.4,6.4-6.4,6.4,2.87,6.4,6.4h0Zm6.91-11.57c-3.24-3.72-8-6.08-13.31-6.08-9.73,0-17.65,7.92-17.65,17.65,0,.41.02.83.05,1.23l-55.37,22.94c-8.35-13.19-13.93-28.41-13.93-45.59,0-24.73,20.12-44.84,44.84-44.84,15.04,0,29.02,7.52,37.37,20.12,1.04,1.57,2.8,2.51,4.69,2.51s3.64-.95,4.69-2.51c8.36-12.59,22.32-20.12,37.37-20.12,17.98,0,33.51,10.64,40.66,25.95l-69.4,28.75Zm28.75-65.95c-13.56,0-26.4,4.89-36.43,13.5V11.34c44.3,1.35,85.86,18.56,118.14,48.94l-59.02,59.02c-6.94-3.08-14.62-4.81-22.69-4.81h0Zm-136.02,83.14c2.44,7.8,5.94,15.45,10.47,22.91l-30.11,12.47-21.41-8.87c-2.87-1.19-6.16.18-7.35,3.05-1.19,2.87.18,6.16,3.05,7.35l18.37,7.61-7.61,18.37c-1.19,2.87.18,6.16,3.04,7.35.71.29,1.43.43,2.15.43,2.21,0,4.3-1.31,5.2-3.48l8.87-21.41,32.22-13.34c4.22,5.67,9.07,11.2,14.51,16.56l-69.15,69.15c-30.38-32.28-47.59-73.84-48.94-118.14h86.69Zm39.68,56.62c1.46,1.27,2.95,2.52,4.48,3.77,18.47,14.97,36.74,24.2,44.18,27.66v86.98c-44.3-1.35-85.86-18.56-118.14-48.94l69.47-69.47Zm151.02-67.87c.94-5.22,1.42-10.49,1.42-15.8,0-4.31-.5-8.49-1.42-12.52l28.57-11.84-8.78,11.85c-1.85,2.5-1.32,6.02,1.17,7.87,1.01.75,2.18,1.11,3.35,1.11,1.72,0,3.42-.79,4.52-2.28l20.87-28.17c1.18-1.59,1.43-3.68.68-5.5-.76-1.83-2.41-3.12-4.37-3.41l-34.68-5.16c-3.08-.46-5.94,1.66-6.39,4.74-.46,3.07,1.66,5.94,4.73,6.39l14.59,2.17-27.88,11.55c-4.07-8.92-10.4-16.59-18.26-22.27l56.88-56.87c30.38,32.28,47.59,73.84,48.93,118.14h-83.93Zm0,0"/>
</svg>