<?xml version="1.0" encoding="UTF-8"?>
<svg id="Livello_1" data-name="Livello 1" xmlns="http://www.w3.org/2000/svg" xmlns:xlink="http://www.w3.org/1999/xlink" viewBox="0 0 132 384">
  <defs>
    <style>
      .cls-1 {
        fill: none;
      }

      .cls-2 {
        clip-path: url(#clippath);
      }

      .cls-3 {
        fill: #fff;
      }

      .cls-4 {
        fill: #fefefe;
      }

      .cls-5 {
        fill: #9cdde2;
      }

      .cls-6 {
        fill: #0bc8d1;
      }
    </style>
    <clipPath id="clippath">
      <rect class="cls-1" y="0" width="132" height="384"/>
    </clipPath>
  </defs>
  <path class="cls-6" d="m114.1,354.33V77.77c0-19.61-11.74-36.43-28.57-43.91-4.45-1.98-7.5-6.17-7.5-11.04v-4.53c0-5.99-4.09-11.54-10-12.5-7.54-1.22-14.04,4.56-14.04,11.86v5.17c0,4.87-3.05,9.06-7.5,11.04-16.83,7.48-28.57,24.3-28.57,43.91v276.56c-6.64,0-12.02,5.38-12.02,12.02s5.38,12.02,12.02,12.02h96.2c6.64,0,12.02-5.38,12.02-12.02s-5.38-12.02-12.02-12.02h0Zm0,0"/>
  <g class="cls-2">
    <path class="cls-5" d="m114.1,354.33V77.77c0-19.61-11.74-36.43-28.57-43.91-4.45-1.98-7.5-6.17-7.5-11.04v-3.87c0-6.45-3.76-11.86-9.41-13.06-3.17-.67-6.17-.06-8.63,1.37v15.56c0,12.14,7.44,23.06,18.95,27.84,10.24,4.25,17.12,15.3,17.12,27.5v246.11c0,6.64-5.38,12.02-12.02,12.02H17.9v18.04h77.52c5.99,0,11.54,4.09,12.5,10.01,1.22,7.53-4.56,14.04-11.86,14.04h17.39c5.99,0,11.54-4.09,12.5-10.01,1.23-7.53-4.56-14.04-11.86-14.04h0Zm0,0"/>
    <path d="m119.72,349.63V77.77c0-21.18-12.53-40.43-31.91-49.05-2.57-1.14-4.16-3.4-4.16-5.9v-4.53c0-8.93-6.33-16.69-14.73-18.05-5.17-.84-10.4.6-14.35,3.96-3.95,3.36-6.22,8.26-6.22,13.45v5.18c0,2.5-1.6,4.76-4.16,5.9-19.38,8.62-31.91,27.87-31.91,49.04v271.86c-6.98,2.36-12.02,8.96-12.02,16.73,0,9.73,7.92,17.65,17.65,17.65h96.2c9.73,0,17.65-7.92,17.65-17.65,0-7.77-5.04-14.37-12.02-16.73h0ZM23.53,77.77c0-16.73,9.91-31.95,25.23-38.77,6.59-2.93,10.84-9.28,10.84-16.18v-5.18c0-1.88.82-3.66,2.26-4.88,1.45-1.23,3.32-1.74,5.26-1.43,2.96.48,5.28,3.54,5.28,6.95v4.53c0,6.9,4.26,13.25,10.84,16.18,15.32,6.81,25.23,22.03,25.23,38.77v24.67c-9.82.83-15.68,3.74-20.94,6.37-5.82,2.91-10.84,5.42-21.53,5.42s-15.72-2.51-21.53-5.42c-5.26-2.62-11.13-5.54-20.94-6.37v-24.67h0Zm0,66.02c4.74.49,7.93,1.56,10.3,2.52.69.28,1.41.41,2.11.41,2.22,0,4.33-1.33,5.21-3.51,1.17-2.88-.22-6.16-3.1-7.33-4.61-1.87-9.24-2.96-14.53-3.4v-18.76c7.05.72,11.22,2.8,15.91,5.15,6.19,3.1,13.21,6.61,26.56,6.61s20.37-3.51,26.56-6.61c4.69-2.34,8.86-4.43,15.91-5.15v18.78c-9.82.82-15.68,3.74-20.94,6.37-5.81,2.91-10.84,5.42-21.53,5.42-1.92,0-3.76-.09-5.46-.25-3.09-.31-5.84,1.95-6.15,5.04-.31,3.09,1.95,5.84,5.04,6.15,2.07.2,4.27.31,6.57.31,13.35,0,20.37-3.51,26.57-6.6,4.69-2.34,8.86-4.43,15.91-5.15v18.78c-9.82.82-15.68,3.74-20.94,6.37-5.82,2.91-10.84,5.42-21.53,5.42s-15.72-2.51-21.53-5.42c-5.26-2.63-11.13-5.55-20.94-6.37v-18.77h0Zm0,30.05c7.04.72,11.22,2.8,15.91,5.15,6.19,3.1,13.21,6.61,26.57,6.61s20.37-3.51,26.56-6.61c4.69-2.34,8.86-4.43,15.91-5.15v18.78c-9.81.82-15.68,3.74-20.94,6.37-5.81,2.91-10.84,5.42-21.53,5.42s-15.72-2.51-21.54-5.42c-5.25-2.63-11.12-5.55-20.94-6.37v-18.78Zm0,30.06c7.04.72,11.22,2.8,15.91,5.15,6.19,3.1,13.21,6.61,26.57,6.61s20.37-3.51,26.56-6.61c4.69-2.34,8.86-4.43,15.91-5.15v18.78c-9.81.82-15.68,3.74-20.94,6.37-5.81,2.91-10.84,5.42-21.53,5.42s-15.72-2.51-21.54-5.42c-5.25-2.62-11.12-5.54-20.94-6.37v-18.78Zm0,30.06c7.04.72,11.22,2.81,15.91,5.15,6.19,3.1,13.21,6.61,26.57,6.61s20.37-3.51,26.56-6.61c4.69-2.34,8.86-4.43,15.91-5.15v18.78c-9.81.82-15.68,3.74-20.94,6.37-5.81,2.91-10.84,5.42-21.53,5.42s-15.72-2.51-21.54-5.42c-5.25-2.63-11.12-5.55-20.94-6.37v-18.78Zm0,30.06c7.04.72,11.22,2.8,15.91,5.15,6.19,3.1,13.21,6.61,26.57,6.61s20.37-3.51,26.56-6.61c4.69-2.34,8.86-4.43,15.91-5.15v18.78c-9.81.82-15.68,3.74-20.94,6.37-5.81,2.91-10.84,5.42-21.53,5.42s-15.72-2.51-21.54-5.42c-5.25-2.62-11.12-5.54-20.94-6.37v-18.78Zm0,30.06c7.04.72,11.22,2.8,15.91,5.15,6.19,3.1,13.21,6.61,26.57,6.61s20.37-3.51,26.56-6.61c4.69-2.34,8.86-4.43,15.91-5.15v18.78c-9.81.82-15.68,3.74-20.94,6.37-5.81,2.91-10.84,5.42-21.53,5.42s-15.72-2.51-21.54-5.42c-5.25-2.63-11.12-5.55-20.94-6.37v-18.78Zm90.57,78.66H17.9c-3.53,0-6.4-2.87-6.4-6.4s2.87-6.4,6.4-6.4h60.12c3.11,0,5.62-2.52,5.62-5.62s-2.52-5.62-5.62-5.62H23.53v-24.55c7.04.72,11.22,2.8,15.91,5.15,6.19,3.1,13.21,6.61,26.57,6.61s20.37-3.51,26.56-6.61c4.69-2.34,8.86-4.43,15.91-5.15v24.55h-6.4c-3.11,0-5.62,2.52-5.62,5.62s2.52,5.62,5.62,5.62h12.02c3.53,0,6.4,2.87,6.4,6.4s-2.87,6.4-6.4,6.4h0Zm0,0"/>
  </g>
  <path class="cls-4" d="m47.58,83.78c0,3.11-2.52,5.62-5.62,5.62s-5.62-2.52-5.62-5.62,2.52-5.62,5.62-5.62,5.62,2.52,5.62,5.62h0Zm0,0"/>
  <path class="cls-3" d="m71.62,83.78c0,3.11-2.52,5.62-5.62,5.62s-5.62-2.52-5.62-5.62,2.52-5.62,5.62-5.62,5.62,2.52,5.62,5.62h0Zm0,0"/>
  <path class="cls-3" d="m95.68,83.78c0,3.11-2.52,5.62-5.62,5.62s-5.62-2.52-5.62-5.62,2.52-5.62,5.62-5.62,5.62,2.52,5.62,5.62h0Zm0,0"/>
  <path class="cls-3" d="m59.59,59.74c0,3.11-2.52,5.62-5.62,5.62s-5.63-2.52-5.63-5.62,2.52-5.62,5.63-5.62,5.62,2.52,5.62,5.62h0Zm0,0"/>
  <path class="cls-3" d="m83.65,59.74c0,3.11-2.52,5.62-5.62,5.62s-5.62-2.52-5.62-5.62,2.52-5.62,5.62-5.62,5.62,2.52,5.62,5.62h0Zm0,0"/>
</svg>