<?xml version="1.0" encoding="UTF-8"?>
<svg id="Livello_1" data-name="Livello 1" xmlns="http://www.w3.org/2000/svg" viewBox="0 0 323.88 384">
  <defs>
    <style>
      .cls-1 {
        fill: #107ba0;
      }

      .cls-2 {
        fill: #27afe9;
      }
    </style>
  </defs>
  <path class="cls-2" d="m103.06,378.38h117.76c17.89,0,35.41-6.36,48.43-18.65,30.17-28.49,49.01-68.84,49.01-113.62,0-126.25-69.98-240.48-156.31-240.48S5.63,119.86,5.63,246.11c0,44.77,18.84,85.12,49.01,113.62,13.01,12.29,30.53,18.65,48.43,18.65h0Zm0,0"/>
  <path class="cls-1" d="m318.25,246.11c0-126.25-69.98-240.48-156.31-240.48-2.01,0-4,.12-6,.25.07,9.42,7.03,17.2,16.63,18.52,69.19,9.54,127.64,111.07,127.64,221.71,0,38.41-15.4,74.1-43.36,100.5-9.38,8.86-22.18,13.73-36.04,13.73h-105.73c-9.85,0-17.86,7.95-18.01,17.77,1.99.16,3.98.27,5.98.27h117.76c17.89,0,35.41-6.37,48.43-18.65,30.17-28.49,49.01-68.84,49.01-113.62h0Zm0,0"/>
  <path d="m277.21,75.5c-14.88-23.32-32.13-41.72-51.27-54.71C205.59,7,184.06,0,161.94,0s-43.66,7-64,20.79c-19.15,12.98-36.4,31.39-51.27,54.71C17.01,121.98,0,184.17,0,246.11c0,22.67,4.6,44.6,13.67,65.18,8.76,19.87,21.24,37.54,37.11,52.52,13.79,13.02,32.36,20.18,52.29,20.18h117.76c19.93,0,38.5-7.17,52.29-20.18,15.86-14.98,28.35-32.65,37.1-52.52,9.07-20.58,13.67-42.52,13.67-65.18,0-61.94-17.01-124.12-46.67-170.61h0ZM11.25,246.11c0-14.73,1-29.48,2.92-44,4.75,1.02,9.85,1.52,15.47,1.52,17.96,0,27.41-5.16,35.75-9.7,7.85-4.29,15.27-8.33,30.36-8.33s22.52,4.05,30.37,8.33c8.34,4.55,17.79,9.7,35.76,9.7s27.41-5.16,35.75-9.7c7.85-4.29,15.27-8.33,30.36-8.33s22.53,4.05,30.39,8.33c8.34,4.55,17.8,9.7,35.77,9.7,5.65,0,10.77-.51,15.54-1.53,1.92,14.52,2.92,29.27,2.92,44,0,3.28-.11,6.54-.32,9.78-5.38,1.79-11.22,2.63-18.13,2.63-15.11,0-22.53-4.05-30.39-8.33-8.34-4.55-17.8-9.7-35.78-9.7s-27.41,5.16-35.75,9.71c-7.85,4.28-15.27,8.33-30.37,8.33s-22.52-4.05-30.38-8.33c-8.34-4.55-17.79-9.71-35.76-9.71s-27.41,5.16-35.75,9.71c-7.85,4.28-15.27,8.33-30.36,8.33-6.91,0-12.72-.84-18.07-2.61-.21-3.25-.32-6.52-.32-9.8h0ZM104.25,30.1c18.45-12.51,37.86-18.85,57.69-18.85s39.24,6.34,57.69,18.85c5.35,3.63,10.54,7.73,15.58,12.27-2.3-.19-4.68-.29-7.19-.29-17.97,0-27.42,5.16-35.75,9.7-7.85,4.29-15.27,8.33-30.37,8.33s-22.52-4.05-30.38-8.33c-8.34-4.55-17.79-9.7-35.76-9.7-2.46,0-4.81.09-7.07.28,5.03-4.54,10.22-8.64,15.57-12.27h0Zm-48.1,51.45c5.66-8.87,11.67-16.96,18-24.28,4.51-1.91,11.02-3.93,21.61-3.93,15.1,0,22.52,4.05,30.37,8.33,8.34,4.55,17.79,9.71,35.76,9.71s27.41-5.16,35.75-9.71c7.85-4.28,15.27-8.33,30.36-8.33,10.61,0,17.2,2.05,21.78,4,6.3,7.29,12.3,15.36,17.94,24.21,8.68,13.6,16.22,28.62,22.53,44.61-12.53-.64-19.32-4.34-26.47-8.23-8.34-4.55-17.8-9.7-35.77-9.7s-27.42,5.16-35.75,9.7c-7.85,4.28-15.27,8.33-30.37,8.33s-22.52-4.05-30.38-8.33c-8.34-4.55-17.79-9.7-35.76-9.7-2.2,0-4.34.07-6.38.23-3.1.23-5.43,2.93-5.19,6.02.23,3.1,2.93,5.43,6.03,5.2,1.76-.13,3.62-.2,5.54-.2,15.1,0,22.52,4.05,30.37,8.33,8.34,4.55,17.8,9.71,35.77,9.71s27.41-5.16,35.75-9.71c7.85-4.28,15.27-8.33,30.37-8.33s22.53,4.05,30.39,8.33c8.34,4.55,17.8,9.7,35.78,9.7.1,0,.2,0,.3,0,5.94,17.04,10.5,35.02,13.57,53.46-4.17.96-8.74,1.43-13.87,1.43-15.11,0-22.53-4.05-30.39-8.33-8.34-4.55-17.8-9.7-35.77-9.7s-27.41,5.16-35.75,9.7c-7.85,4.29-15.27,8.33-30.36,8.33s-22.52-4.05-30.38-8.33c-8.34-4.55-17.79-9.7-35.76-9.7s-27.41,5.16-35.75,9.7c-7.86,4.29-15.27,8.33-30.36,8.33-5.18,0-9.66-.45-13.81-1.41,3.07-18.45,7.63-36.43,13.57-53.48.08,0,.16,0,.24,0,17.96,0,27.41-5.16,35.75-9.71.99-.54,1.98-1.08,2.99-1.61,2.75-1.45,3.79-4.86,2.34-7.6-1.45-2.75-4.86-3.79-7.6-2.34-1.05.56-2.08,1.12-3.11,1.68-7.13,3.89-13.9,7.59-26.38,8.23,6.31-15.99,13.85-31,22.53-44.61h0Zm243.77,225.21c-2.72,6.18-5.84,12.11-9.32,17.81-12.74-.59-19.59-4.31-26.81-8.25-2.95-1.6-5.98-3.26-9.45-4.75-2.86-1.22-6.17.11-7.39,2.96-1.22,2.86.1,6.16,2.96,7.38,2.98,1.27,5.66,2.73,8.49,4.28,6.5,3.54,13.69,7.46,25.05,9.02-5.36,7.29-11.39,14.11-18.07,20.42-11.69,11.04-27.51,17.11-44.56,17.11h-117.76c-17.05,0-32.88-6.08-44.56-17.11-6.68-6.31-12.71-13.14-18.08-20.43,11.32-1.56,18.49-5.47,24.97-9,7.85-4.29,15.27-8.33,30.36-8.33s22.52,4.05,30.37,8.33c8.34,4.55,17.8,9.7,35.76,9.7s27.42-5.16,35.75-9.7c7.85-4.29,15.27-8.33,30.37-8.33,3.11,0,5.62-2.52,5.62-5.62s-2.52-5.62-5.62-5.62c-17.97,0-27.42,5.16-35.75,9.7-7.85,4.29-15.27,8.33-30.37,8.33s-22.52-4.05-30.38-8.33c-8.34-4.55-17.79-9.7-35.76-9.7s-27.41,5.16-35.75,9.7c-7.2,3.93-14.03,7.65-26.72,8.25-3.49-5.7-6.6-11.64-9.32-17.81-5.49-12.45-9.2-25.45-11.14-38.81,5.14,1.23,10.62,1.83,16.82,1.83,17.96,0,27.41-5.16,35.75-9.71,7.86-4.28,15.27-8.33,30.37-8.33s22.52,4.05,30.37,8.33c8.34,4.55,17.79,9.71,35.76,9.71s27.41-5.16,35.75-9.71c7.85-4.28,15.27-8.33,30.36-8.33s22.53,4.05,30.39,8.33c8.34,4.55,17.8,9.7,35.77,9.7,6.2,0,11.72-.6,16.88-1.84-1.93,13.37-5.65,26.37-11.14,38.82h0Zm0,0"/>
</svg>