<?xml version="1.0" encoding="UTF-8"?>
<svg id="Livello_1" data-name="Livello 1" xmlns="http://www.w3.org/2000/svg" xmlns:xlink="http://www.w3.org/1999/xlink" viewBox="0 0 288 384">
  <defs>
    <style>
      .cls-1 {
        fill: none;
      }

      .cls-2 {
        clip-path: url(#clippath);
      }

      .cls-3 {
        fill: #ae37f4;
      }

      .cls-4 {
        fill: #7a2bb2;
      }
    </style>
    <clipPath id="clippath">
      <rect class="cls-1" width="288" height="384"/>
    </clipPath>
  </defs>
  <path class="cls-3" d="m263.71,330.28h-11.49c-13.28,0-24.05-10.77-24.05-24.05V65.75c0-33.2-26.91-60.12-60.12-60.12h-10.37c-20.84,0-37.73,16.89-37.73,37.73,0,13.8,7.54,26.51,19.66,33.12l15.97,8.71c16.09,8.77,20.65,29.77,9.66,44.43l-3.21,4.27c-7.81,10.41-12.02,23.06-12.02,36.07v48.88c0,13.61,5.41,26.66,15.03,36.29,9.62,9.62,15.03,22.68,15.03,36.29v8.8c0,16.6-13.46,30.06-30.06,30.06h-5.82c-16.09,0-31.78-4.43-45.8-12.32-13.66-7.69-29.08-11.73-44.76-11.73h-10.32c-19.75,0-36.98,15.22-37.57,34.96-.61,20.43,15.77,37.18,36.05,37.18h204.41c16.93,0,36.84-13.99,36.05-31.04-.44-9.66-8.87-17.06-18.54-17.06h0Zm0,0"/>
  <path class="cls-3" d="m43.31,330.28h10.32c11.52,0,22.92,2.99,32.96,8.64,17.91,10.08,37.82,15.41,57.59,15.41h5.82c29.84,0,54.11-24.27,54.11-54.11v-8.81c0-20.12-7.84-39.05-22.07-53.28-5.15-5.16-7.99-12-7.99-19.28v-48.89c0-7.75,2.56-15.44,7.2-21.63l3.22-4.29c9.43-12.58,12.92-28.6,9.58-43.96-3.34-15.36-13.17-28.48-26.97-36.01l-15.97-8.71c-4.4-2.4-7.12-7-7.12-12.01,0-10.12-6.64-19.05-16.27-22.89-4.86,6.36-7.78,14.27-7.78,22.89,0,13.8,7.54,26.51,19.66,33.12l15.98,8.71c16.08,8.77,20.65,29.77,9.65,44.43l-3.2,4.27c-7.81,10.41-12.02,23.06-12.02,36.07v48.88c0,13.61,5.41,26.66,15.03,36.29,9.62,9.62,15.03,22.68,15.03,36.29v8.8c0,16.6-13.46,30.06-30.06,30.06h-5.83c-16.09,0-31.78-4.43-45.8-12.32-13.66-7.69-29.08-11.73-44.76-11.73h-10.32c-8.48,0-16.5,2.82-22.93,7.6,3.62,9.78,12.68,16.45,22.93,16.45h0Zm0,0"/>
  <g class="cls-2">
    <path class="cls-4" d="m263.71,330.28h-11.49c-13.28,0-24.05-10.77-24.05-24.05V65.75c0-33.2-26.91-60.12-60.12-60.12h-5.7l.26,1.24c1.9,9.24,8.6,16.4,17.38,18.5,18.15,4.32,30.15,21.73,30.15,40.39v240.48c0,19.38,13.18,35.7,31.04,40.56,2.98.81,5.03,3.53,5.03,6.62,0,3.82-3.1,6.93-6.93,6.93H53.82c-9.76,0-17.69,7.81-17.98,17.5,1.94.32,3.93.54,5.96.54h204.41c16.93,0,36.84-13.99,36.05-31.04-.44-9.66-8.87-17.06-18.54-17.06h0Zm0,0"/>
    <path d="m287.88,347.07c-.58-12.57-11.2-22.42-24.16-22.42h-11.49c-10.16,0-18.42-8.27-18.42-18.42V65.75C233.8,29.49,204.3,0,168.05,0h-10.37c-23.91,0-43.35,19.45-43.35,43.35,0,15.87,8.66,30.46,22.59,38.05l15.98,8.71c6.23,3.4,10.67,9.33,12.18,16.26,1.51,6.94-.07,14.17-4.33,19.85l-3.21,4.27c-8.48,11.3-13.15,25.32-13.15,39.45v48.88c0,15.21,5.92,29.51,16.68,40.26,8.63,8.63,13.38,20.1,13.38,32.31v8.8c0,13.47-10.97,24.43-24.44,24.43h-5.82c-14.68,0-29.56-4.01-43.04-11.59-4.91-2.76-10.09-5.11-15.41-6.98-2.93-1.03-6.14.51-7.17,3.44-1.03,2.93.51,6.14,3.45,7.17,4.69,1.65,9.28,3.73,13.61,6.17,15.16,8.53,31.95,13.04,48.56,13.04h5.82c19.68,0,35.69-16.01,35.69-35.68v-8.8c0-15.21-5.93-29.51-16.68-40.27-8.63-8.63-13.38-20.1-13.38-32.31v-48.88c0-11.71,3.87-23.33,10.9-32.7l3.21-4.27c6.22-8.29,8.52-18.86,6.32-28.99-2.2-10.13-8.68-18.79-17.78-23.75l-15.98-8.71c-10.32-5.63-16.73-16.43-16.73-28.18,0-5.68,1.48-11.01,4.08-15.64,5.32,3.32,8.72,9.24,8.72,15.64,0,7.06,3.85,13.56,10.05,16.95.86.47,1.78.69,2.69.69,1.99,0,3.92-1.06,4.94-2.93,1.49-2.73.49-6.14-2.24-7.63-2.59-1.41-4.2-4.12-4.2-7.07,0-9.81-4.94-18.91-12.79-24.39,5.61-4.8,12.89-7.71,20.84-7.71h10.37c30.05,0,54.5,24.45,54.5,54.5v240.48c0,16.36,13.31,29.67,29.67,29.67h11.49c6.83,0,12.62,5.25,12.93,11.69.29,6.27-3.22,11.32-6.21,14.46-6.21,6.5-15.71,10.7-24.22,10.7H41.8c-8.31,0-16.07-3.29-21.86-9.25-5.78-5.96-8.83-13.82-8.58-22.14.21-6.98,2.97-13.4,7.41-18.46,5.44,7.98,14.59,13,24.54,13h10.32c10.56,0,21,2.74,30.2,7.91,18.75,10.55,39.62,16.14,60.36,16.14h5.82c32.94,0,59.73-26.8,59.73-59.73v-8.81c0-21.63-8.42-41.97-23.72-57.26-4.09-4.09-6.34-9.53-6.34-15.3v-48.89c0-6.54,2.16-13.03,6.08-18.25l3.22-4.29c10.41-13.89,14.26-31.57,10.58-48.53-3.17-14.59-11.62-27.39-23.8-36.03-2.53-1.8-6.04-1.2-7.84,1.33-1.8,2.54-1.2,6.05,1.33,7.84,9.88,7.01,16.74,17.39,19.32,29.24,2.99,13.76-.14,28.12-8.58,39.38l-3.23,4.29c-5.37,7.16-8.33,16.04-8.33,25v48.89c0,8.78,3.42,17.04,9.64,23.26,13.17,13.17,20.43,30.68,20.43,49.31v8.81c0,26.73-21.75,48.48-48.48,48.48h-5.83c-18.8,0-37.76-5.08-54.84-14.69-10.88-6.12-23.23-9.36-35.72-9.36h-10.32c-6.47,0-12.39-3.43-15.7-8.8,4.66-2.54,10.02-4,15.7-4h10.32c1.93,0,3.89.07,5.82.2,3.09.21,5.79-2.13,6-5.23.21-3.1-2.13-5.79-5.23-6-2.18-.15-4.4-.22-6.58-.22h-10.32c-23.14,0-42.52,18.13-43.19,40.42-.34,11.39,3.83,22.16,11.75,30.32,7.92,8.16,18.55,12.66,29.93,12.66h204.41c11.61,0,24-5.43,32.36-14.18,6.38-6.68,9.68-14.76,9.31-22.75h0Zm0,0"/>
  </g>
</svg>