<?xml version="1.0" encoding="UTF-8"?>
<svg id="Livello_1" data-name="Livello 1" xmlns="http://www.w3.org/2000/svg" viewBox="0 0 155.54 384">
  <defs>
    <style>
      .cls-1 {
        fill: #ef009f;
      }

      .cls-2 {
        fill: #fff;
      }

      .cls-3 {
        fill: #eceaec;
      }

      .cls-4 {
        fill: #fcbbec;
      }

      .cls-5 {
        fill: #ff66d4;
      }

      .cls-6 {
        fill: #dbd8db;
      }

      .cls-7 {
        fill: #dfbdf0;
      }
    </style>
  </defs>
  <path class="cls-3" d="m35.68,294.21v72.14c0,6.64,5.38,12.02,12.02,12.02h60.12c6.64,0,12.03-5.38,12.03-12.02v-72.14H35.68Zm0,0"/>
  <path class="cls-6" d="m107.83,378.38h-6.01v-72.15h18.04v60.12c0,6.64-5.38,12.02-12.02,12.02h0Zm0,0"/>
  <path class="cls-1" d="m137.89,5.62H17.65c-6.64,0-12.02,5.38-12.02,12.02v4.58c0,4.96.16,9.92.48,14.87l16.82,257.89c.41,6.32,5.66,11.24,12,11.24h85.69c6.34,0,11.59-4.92,12-11.24l16.82-257.89c.32-4.95.49-9.91.49-14.87v-4.58c0-6.64-5.38-12.02-12.02-12.02h0Zm0,0"/>
  <path class="cls-5" d="m137.89,5.62H17.65c-6.64,0-12.02,5.38-12.02,12.02v4.58c0,2.48.16,4.96.24,7.44h125.77c-.07,2.09-.07,4.17-.2,6.26h0s-15.35,235.4-15.35,235.4c-.62,9.48-8.49,16.86-18,16.86H22.48l.44,6.8c.41,6.32,5.66,11.24,12,11.24h85.69c6.34,0,11.59-4.92,12-11.24l16.82-257.89c.32-4.95.49-9.91.49-14.87v-4.58c0-6.64-5.38-12.02-12.02-12.02h0Zm0,0"/>
  <path class="cls-7" d="m131.64,29.67h18.04c.08-2.48.24-4.96.24-7.44v-4.58c0-6.64-5.38-12.02-12.02-12.02h-6.01v16.61c0,2.45-.16,4.95-.24,7.44h0Zm0,0"/>
  <path class="cls-1" d="m18.54,227.73c15.21,15.07,36.13,24.39,59.23,24.39s44.02-9.32,59.23-24.39l7.26-111.26c-15.4-19.85-39.41-32.68-66.48-32.68s-51.09,12.83-66.48,32.68l7.26,111.26Zm0,0"/>
  <path class="cls-2" d="m82.35,136.99c-2.4-2.87-6.78-2.85-9.18.02-6.58,7.86-18.03,23.69-19.32,39.97-1.06,13.27,7.85,25.36,21.07,26.88l26.9-23.88c0-17.33-12.49-34.66-19.47-42.99h0Zm0,0"/>
  <path class="cls-5" d="m140.78,169.73l3.47-53.27c-4.84-6.25-10.62-11.7-17.01-16.38l-9.25,141.78c6.99-3.81,13.39-8.58,19-14.14l3.78-58Zm0,0"/>
  <path class="cls-4" d="m82.35,136.99c-2.4-2.87-6.78-2.85-9.18.02-1.97,2.36-4.38,5.49-6.82,9.07,5.78,6.28,15.89,19.83,17.28,31.42.29,2.45-.78,5.99-1.81,6.91-.27.25-.56.47-.86.66-6.63,4.21-10.73,10.24-11.82,17.27,1.82.71,3.72,1.27,5.77,1.51,14.56,1.68,26.9-9.66,26.9-23.88,0-17.33-12.49-34.66-19.47-42.99h0Zm0,0"/>
  <path d="m137.89,0H17.65C7.92,0,0,7.92,0,17.65v4.58c0,5.06.17,10.18.5,15.23l16.82,257.89c.49,7.57,5.76,13.79,12.74,15.81v55.19c0,9.73,7.92,17.65,17.65,17.65h60.12c9.73,0,17.65-7.92,17.65-17.65v-55.19c6.98-2.02,12.25-8.24,12.75-15.81l16.82-257.89c.33-5.05.5-10.18.5-15.23v-4.58c0-9.73-7.92-17.65-17.65-17.65h0ZM17.04,118.27c15.02-18.37,37.03-28.87,60.73-28.87s45.71,10.5,60.73,28.87l-6.97,106.92c-14.62,13.75-33.63,21.31-53.76,21.31s-39.13-7.55-53.76-21.31l-6.97-106.92ZM11.25,17.65c0-3.53,2.87-6.4,6.4-6.4h120.24c3.53,0,6.4,2.87,6.4,6.4v4.58c0,.61,0,1.21-.02,1.82H47.71c-3.11,0-5.63,2.52-5.63,5.62s2.52,5.62,5.63,5.62h96.19c-.03.48-.05.96-.08,1.44l-4.31,66.11c-16.58-15.82-38.44-24.68-61.73-24.68s-45.15,8.86-61.74,24.68l-4.31-66.11c-.03-.48-.05-.96-.08-1.44h12.02c3.1,0,5.62-2.52,5.62-5.62s-2.52-5.62-5.62-5.62h-12.4c0-.61-.02-1.21-.02-1.82v-4.58Zm102.98,294.21v36.85H41.31v-36.85h72.92Zm-6.4,60.9h-60.12c-3.53,0-6.4-2.87-6.4-6.4v-6.4h72.92v6.4c0,3.53-2.87,6.4-6.4,6.4h0Zm12.78-72.15H34.93c-3.36,0-6.17-2.63-6.39-5.98l-3.52-54.01c15.25,11.12,33.55,17.13,52.75,17.13s37.5-6.01,52.75-17.13l-3.52,54.01c-.22,3.36-3.02,5.98-6.39,5.98h0Zm0,0"/>
  <path d="m92.61,205.68c2.69-1.55,3.61-5,2.05-7.69-1.56-2.69-5-3.61-7.69-2.05-2.78,1.61-5.97,2.46-9.21,2.46-10.16,0-18.42-8.26-18.42-18.42,0-15.73,11.98-32.06,18.42-39.69,6.44,7.64,18.42,23.96,18.42,39.69,0,3.1,2.52,5.62,5.62,5.62s5.62-2.52,5.62-5.62c0-26.08-24.65-51.02-25.7-52.07-2.2-2.2-5.76-2.2-7.95,0-1.05,1.05-25.69,26-25.69,52.07,0,16.36,13.31,29.67,29.67,29.67,5.21,0,10.35-1.38,14.84-3.97h0Zm0,0"/>
</svg>