<?xml version="1.0" encoding="UTF-8"?>
<svg id="Livello_1" data-name="Livello 1" xmlns="http://www.w3.org/2000/svg" viewBox="0 0 107.45 384">
  <defs>
    <style>
      .cls-1 {
        fill: #ec08f9;
      }

      .cls-2 {
        fill: #7527ad;
      }

      .cls-3 {
        fill: #323232;
      }

      .cls-4 {
        fill: #ad08ba;
      }

      .cls-5 {
        fill: #ae37f4;
      }
    </style>
  </defs>
  <rect class="cls-1" x="41.7" y="119.86" width="24.05" height="36.07"/>
  <path class="cls-5" d="m83.79,149.91H23.66c-6.64,0-12.03,5.38-12.03,12.02v174.35c0,23.24,18.84,42.09,42.09,42.09s42.09-18.84,42.09-42.09v-174.35c0-6.64-5.38-12.02-12.02-12.02h0Zm0,0"/>
  <path class="cls-2" d="m95.81,161.94c0-6.64-5.39-12.02-12.02-12.02h-6.01v186.38c0,10.36-6.61,19.54-16.46,22.82-7.99,2.67-13.37,10.19-13.57,18.79,1.96.28,3.94.47,5.98.47,23.24,0,42.09-18.84,42.09-42.09v-174.35Zm0,0"/>
  <path class="cls-1" d="m83.79,149.91H23.66c-6.64,0-12.03,5.38-12.03,12.02v12.03h84.17v-12.03c0-6.64-5.38-12.02-12.02-12.02h0Zm0,0"/>
  <path class="cls-4" d="m83.79,149.91h-6.01v24.05h18.04v-12.02c0-6.64-5.38-12.03-12.02-12.03h0Zm0,0"/>
  <path class="cls-5" d="m53.72,5.62C27.16,5.62,5.62,27.16,5.62,53.72v36.07c0,6.64,5.38,12.03,12.02,12.03h72.15c6.64,0,12.02-5.39,12.02-12.03v-36.07c0-26.56-21.54-48.1-48.1-48.1h0Zm0,0"/>
  <path class="cls-2" d="m29.68,101.82v12.02c0,6.64,5.38,12.02,12.02,12.02h24.05c6.64,0,12.02-5.38,12.02-12.02v-12.02H29.68Zm0,0"/>
  <path class="cls-1" d="m53.72,246.11c-6.64,0-12.02-5.38-12.02-12.02v-24.05c0-6.64,5.38-12.02,12.02-12.02s12.02,5.38,12.02,12.02v24.05c0,6.64-5.38,12.02-12.02,12.02h0Zm0,0"/>
  <path class="cls-2" d="m65.75,125.87h-6.01v-24.05h18.04v12.02c0,6.64-5.38,12.02-12.02,12.02h0Zm0,0"/>
  <path class="cls-2" d="m53.75,5.62c.14,9.09,5.48,17.16,13.6,21.29,9.75,4.97,16.43,15.11,16.43,26.8v48.09h6.01c6.64,0,12.03-5.38,12.03-12.02v-36.07c0-26.55-21.52-48.08-48.08-48.1h0Zm0,0"/>
  <path d="m53.72,0C24.1,0,0,24.1,0,53.72v36.07c0,9.73,7.92,17.65,17.65,17.65h6.4v6.4c0,7.77,5.04,14.37,12.02,16.72v13.72h-12.41c-9.73,0-17.65,7.92-17.65,17.65v174.35c0,26.31,21.4,47.71,47.71,47.71s47.71-21.4,47.71-47.71v-174.35c0-9.73-7.92-17.65-17.65-17.65h-12.41v-13.72c6.98-2.35,12.02-8.96,12.02-16.72v-6.4h6.4c9.73,0,17.65-7.92,17.65-17.65v-36.07C107.45,24.1,83.34,0,53.72,0h0Zm0,11.25c21.51,0,39.33,16.08,42.09,36.85H11.64C14.4,27.33,32.21,11.25,53.72,11.25h0Zm36.46,150.69v6.4h-36.46c-3.11,0-5.62,2.51-5.62,5.62s2.52,5.62,5.62,5.62h36.46v156.7c0,20.11-16.36,36.46-36.46,36.46s-36.46-16.36-36.46-36.46v-156.7h12.41c3.11,0,5.62-2.52,5.62-5.62s-2.52-5.62-5.62-5.62h-12.41v-6.4c0-3.53,2.87-6.4,6.4-6.4h60.12c3.53,0,6.4,2.87,6.4,6.4h0Zm-42.86-17.65v-12.8h12.8v12.8h-12.8Zm24.82-30.45c0,3.53-2.87,6.4-6.4,6.4h-24.05c-3.53,0-6.4-2.87-6.4-6.4v-6.4h36.84v6.4Zm17.65-17.65H17.65c-3.53,0-6.4-2.87-6.4-6.4v-6.4h48.49c3.11,0,5.62-2.52,5.62-5.62s-2.52-5.62-5.62-5.62H11.25v-12.8h84.95v12.8h-12.41c-3.11,0-5.62,2.52-5.62,5.62s2.51,5.62,5.62,5.62h12.41v6.4c0,3.53-2.87,6.4-6.4,6.4h0Zm0,0"/>
  <path class="cls-3" d="m36.08,210.04v24.05c0,9.73,7.92,17.65,17.65,17.65s17.65-7.92,17.65-17.65v-24.05c0-9.73-7.92-17.65-17.65-17.65s-17.65,7.92-17.65,17.65h0Zm17.65,30.45c-3.53,0-6.4-2.87-6.4-6.4v-6.4h12.8v6.4c0,3.53-2.87,6.4-6.4,6.4h0Zm0-36.85c3.53,0,6.4,2.87,6.4,6.4v6.4h-12.8v-6.4c0-3.53,2.87-6.4,6.4-6.4h0Zm0,0"/>
</svg>