<?xml version="1.0" encoding="UTF-8"?>
<svg id="Livello_1" data-name="Livello 1" xmlns="http://www.w3.org/2000/svg" viewBox="0 0 167.56 384">
  <defs>
    <style>
      .cls-1 {
        fill: #9c00a0;
      }

      .cls-2 {
        fill: #650368;
      }

      .cls-3 {
        fill: #600663;
      }
    </style>
  </defs>
  <path class="cls-1" d="m147.82,345.18l-39.99-8.89-9.41-18.18,9.41-19.55v-46.49c4.68-.12,9.3-1.25,13.4-3.5,24.25-13.27,40.71-39,40.71-68.6C161.94,107.83,113.84,5.62,83.78,5.62S5.62,107.83,5.62,179.98c0,29.59,16.45,55.33,40.7,68.6,4.11,2.25,8.73,3.37,13.41,3.5v84.22l-39.99,8.89c-8.25,1.84-14.12,9.15-14.12,17.61v3.57c0,6.64,5.38,12.02,12.02,12.02h132.27c6.64,0,12.02-5.38,12.02-12.02v-3.57c0-8.46-5.87-15.77-14.12-17.61h0Zm0,0"/>
  <path class="cls-3" d="m112.59,232.75c-1.61.88-3.54,1.34-5.6,1.34h-35.25c-9.46,0-17.32,7.32-17.97,16.77l-.03.44c1.96.44,3.97.72,6,.77v.05h30.06v54.11c0,6.64-5.38,12.02-12.02,12.02h-18.04v18.04h48.1v-84.22c4.68-.12,9.29-1.25,13.4-3.5,24.25-13.27,40.71-39.01,40.71-68.6,0-72.15-48.1-174.35-78.16-174.35-1.77,0-3.61.38-5.5,1.07,1.15,8.08,4.71,15.18,10.31,20.53,18.77,17.95,55.31,88.12,55.31,152.76,0,21.98-12,42.2-31.32,52.77h0Zm0,0"/>
  <path class="cls-2" d="m147.82,345.18l-3.91-.87v4.01c0,6.64-5.38,12.03-12.02,12.03H5.84c-.11.8-.21,1.61-.21,2.44v3.57c0,6.64,5.38,12.02,12.02,12.02h132.27c6.64,0,12.02-5.38,12.02-12.02v-3.57c0-8.45-5.87-15.77-14.12-17.61h0Zm0,0"/>
  <path d="m149.03,339.68l-35.58-7.91v-7.51c0-3.11-2.52-5.62-5.62-5.62s-5.62,2.52-5.62,5.62v6.4h-36.84v-72.92h36.84v42.47c0,3.11,2.52,5.62,5.62,5.62s5.62-2.52,5.62-5.62v-43.05c3.71-.66,7.25-1.89,10.48-3.66,26.91-14.72,43.63-42.9,43.63-73.53,0-34.16-10.58-77.73-28.31-116.57-8.21-17.99-17.28-33.29-26.21-44.25C102.66,6.45,92.82,0,83.78,0c-11.21,0-23.51,9.77-36.55,29.04-1.74,2.57-1.07,6.07,1.5,7.81,2.57,1.74,6.07,1.07,7.81-1.5,10.21-15.08,20.39-24.09,27.23-24.09,5.26,0,12.74,5.48,20.54,15.03,8.34,10.22,16.88,24.68,24.7,41.8,17.09,37.44,27.3,79.27,27.3,111.9,0,26.52-14.48,50.91-37.78,63.66-3.42,1.87-7.41,2.86-11.55,2.86h-46.4c-4.14,0-8.13-.99-11.55-2.86-23.3-12.75-37.78-37.14-37.78-63.66,0-36.19,12.96-84.74,33.01-123.68,1.42-2.76.33-6.15-2.43-7.58-2.76-1.42-6.15-.34-7.57,2.43C13.45,91.56,0,142.13,0,179.98c0,30.63,16.72,58.81,43.63,73.53,3.23,1.77,6.77,2.99,10.48,3.66v74.61l-35.58,7.91c-10.91,2.43-18.53,11.92-18.53,23.1v3.57c0,9.73,7.92,17.65,17.65,17.65h132.27c9.73,0,17.65-7.92,17.65-17.65v-3.57c0-11.17-7.62-20.67-18.53-23.1h0Zm7.28,26.67c0,3.53-2.87,6.4-6.4,6.4H17.65c-3.53,0-6.4-2.87-6.4-6.4v-3.57c0-5.86,4-10.85,9.72-12.12l39.38-8.75h46.86l39.38,8.75c5.72,1.27,9.72,6.25,9.72,12.12v3.57Zm0,0"/>
</svg>