<?xml version="1.0" encoding="UTF-8"?>
<svg id="Livello_1" data-name="Livello 1" xmlns="http://www.w3.org/2000/svg" xmlns:xlink="http://www.w3.org/1999/xlink" viewBox="0 0 140 384">
  <defs>
    <style>
      .cls-1 {
        fill: none;
      }

      .cls-2 {
        clip-path: url(#clippath);
      }

      .cls-3 {
        fill: #ed00f4;
      }

      .cls-4 {
        fill: #fff;
      }

      .cls-5 {
        fill: #b20bb7;
      }

      .cls-6 {
        fill: #a507aa;
      }
    </style>
    <clipPath id="clippath">
      <rect class="cls-1" width="140" height="384"/>
    </clipPath>
  </defs>
  <path class="cls-3" d="m70,378.38c-38.26,0-67.81-33.61-62.91-71.55l10.45-80.97c2.9-22.48,2.9-45.23,0-67.7L7.09,77.18C2.19,39.23,31.74,5.62,70,5.62s67.81,33.61,62.91,71.55l-10.45,80.97c-2.9,22.48-2.9,45.23,0,67.7l6.79,52.59-6.82,16.53,10.48,11.85c4.9,37.94-24.66,71.55-62.91,71.55h0Zm0,0"/>
  <path class="cls-4" d="m82.02,228.07c0,6.64-5.38,12.02-12.02,12.02s-12.02-5.38-12.02-12.02,5.38-12.03,12.02-12.03,12.02,5.39,12.02,12.03h0Zm0,0"/>
  <path class="cls-4" d="m82.02,276.17c0,6.64-5.38,12.03-12.02,12.03s-12.02-5.39-12.02-12.03,5.38-12.02,12.02-12.02,12.02,5.38,12.02,12.02h0Zm0,0"/>
  <path class="cls-5" d="m122.47,225.85c-2.9-22.47-2.9-45.23,0-67.7l10.45-80.97c4.9-37.94-24.66-71.55-62.91-71.55v18.04c18.18,0,35.15,10.91,42.3,28.83,2.97,7.44,3.59,15.62,2.57,23.56l-.22,1.72H7.16l3.1,24.05h101.28l-6.97,54.02c-3.1,24.01-3.1,48.31,0,72.32l10.29,79.79c1.02,7.95.41,16.12-2.57,23.56-5.13,12.84-15.29,22.08-27.33,26.29-8.77,3.07-14.97,10.89-14.97,20.19v.39c38.26,0,67.81-33.61,62.91-71.55l-10.45-80.97Zm0,0"/>
  <g class="cls-2">
    <path class="cls-6" d="m129.73,101.82l3.1-24.05h-18.19l-3.1,24.05h18.19Zm0,0"/>
    <path d="m132.19,301.25c-3.08.39-5.25,3.21-4.86,6.3,2.13,16.48-2.95,33.09-13.92,45.57-10.97,12.48-26.8,19.64-43.41,19.64s-32.44-7.16-43.41-19.64c-10.97-12.48-16.05-29.09-13.92-45.57l10.45-80.97c2.96-22.94,2.96-46.2,0-69.14l-6.45-49.98h106.67l-6.45,49.98c-2.96,22.94-2.96,46.21,0,69.14l7.38,57.22c.4,3.08,3.22,5.26,6.3,4.86,3.08-.39,5.26-3.21,4.86-6.3l-7.38-57.22c-2.84-21.99-2.84-44.28,0-66.27l10.45-80.97c2.54-19.69-3.52-39.53-16.63-54.44C108.75,8.55,89.85,0,70,0S31.25,8.55,18.14,23.46C5.03,38.37-1.03,58.21,1.51,77.9l10.45,80.97c2.84,21.99,2.84,44.28,0,66.27L1.51,306.1c-2.54,19.69,3.52,39.53,16.63,54.44,13.11,14.91,32.01,23.46,51.86,23.46s38.75-8.55,51.86-23.46c13.11-14.91,19.17-34.75,16.63-54.44-.4-3.08-3.21-5.25-6.3-4.86h0ZM26.59,30.89c4.2-4.78,9.12-8.77,14.52-11.89-5.7,9.11-9.8,21.01-11.64,33.93-.44,3.08,1.7,5.93,4.78,6.36,3.08.43,5.93-1.7,6.36-4.78,3.05-21.52,12.6-37.97,23.77-42.19v41.4c0,3.11,2.52,5.62,5.62,5.62s5.62-2.52,5.62-5.62V12.32c11.16,4.22,20.71,20.67,23.77,42.19.4,2.81,2.81,4.84,5.57,4.84.26,0,.53-.02.8-.05,3.07-.44,5.21-3.29,4.78-6.36-1.84-12.92-5.93-24.82-11.64-33.93,5.4,3.12,10.32,7.11,14.52,11.89,10.02,11.39,15.1,26.22,14.29,41.26H51.96c-3.11,0-5.62,2.52-5.62,5.62s2.52,5.62,5.62,5.62h74.47l-1.65,12.8H15.21l-1.65-12.8h14.35c3.11,0,5.62-2.52,5.62-5.62s-2.52-5.62-5.62-5.62h-15.62c-.8-15.04,4.28-29.87,14.29-41.26h0Zm0,0"/>
  </g>
  <path d="m70,210.42c-9.73,0-17.65,7.92-17.65,17.65s7.92,17.65,17.65,17.65,17.65-7.92,17.65-17.65-7.92-17.65-17.65-17.65h0Zm0,24.05c-3.53,0-6.4-2.87-6.4-6.4s2.87-6.4,6.4-6.4,6.4,2.87,6.4,6.4-2.87,6.4-6.4,6.4h0Zm0,0"/>
  <path d="m87.65,276.17c0-9.73-7.92-17.65-17.65-17.65s-17.65,7.92-17.65,17.65,7.92,17.65,17.65,17.65,17.65-7.92,17.65-17.65h0Zm-17.65,6.4c-3.53,0-6.4-2.87-6.4-6.4s2.87-6.4,6.4-6.4,6.4,2.87,6.4,6.4-2.87,6.4-6.4,6.4h0Zm0,0"/>
  <path d="m64.38,312.24v6.01c0,3.11,2.52,5.62,5.62,5.62s5.62-2.52,5.62-5.62v-6.01c0-3.11-2.52-5.62-5.62-5.62s-5.62,2.52-5.62,5.62h0Zm0,0"/>
</svg>